<svg width="44" height="13" viewBox="0 0 44 13" fill="none" xmlns="http://www.w3.org/2000/svg">
<g clip-path="url(#clip0_1_137)">
<path d="M41.3948 5.89761C42.1609 5.89761 42.7966 5.90731 43.4322 5.8932C43.7399 5.88703 44.0044 6.01751 43.9991 6.29169C43.992 6.63905 43.6385 6.48301 43.4463 6.48477C41.5068 6.49887 39.5619 6.51474 37.6214 6.48477C37.0537 6.47507 36.8659 6.62847 36.8985 7.198C36.947 8.02673 36.91 8.85986 36.9126 9.69123C36.9126 9.96012 36.9329 10.2202 36.5265 10.1938C36.1676 10.1726 36.2144 9.92927 36.2135 9.70445C36.2135 8.81578 36.1959 7.92622 36.2205 7.03843C36.2311 6.63464 36.1059 6.48389 35.6828 6.49094C33.9742 6.52091 32.2653 6.53326 30.5561 6.52797C30.1814 6.52797 30.0175 6.65669 30.058 7.02608C30.0598 7.05544 30.0598 7.08489 30.058 7.11425C29.9293 9.60571 29.9293 9.60571 32.4613 9.60571C33.0414 9.60571 33.6212 9.60571 34.2007 9.60571C34.4159 9.60571 34.616 9.63392 34.6151 9.91869C34.6151 10.2299 34.3753 10.1911 34.1831 10.192C32.7337 10.192 31.2843 10.1867 29.8358 10.2008C29.4929 10.2008 29.3756 10.073 29.3774 9.75206C29.388 7.45984 29.3927 5.16763 29.3915 2.87541C29.3915 2.52805 29.5343 2.43989 29.8596 2.44253C31.2508 2.45487 32.642 2.44253 34.0332 2.44782C34.2351 2.44782 34.4555 2.42842 34.4741 2.72201C34.497 3.05702 34.2739 3.08259 34.0227 3.08259C32.9215 3.08259 31.8186 3.10992 30.7192 3.07025C30.17 3.04997 30.0492 3.24657 30.043 3.75703C30.0183 5.8932 30.0016 5.8932 32.1942 5.8932C33.3535 5.8932 34.5128 5.87909 35.6722 5.90113C36.0804 5.90907 36.2355 5.79269 36.2205 5.37216C36.1915 4.57077 36.2205 3.76673 36.2082 2.96445C36.202 2.62326 36.2743 2.42754 36.6799 2.43548C37.6937 2.45752 38.7138 2.38523 39.7215 2.46986C41.3913 2.6118 42.1433 3.82756 41.6064 5.38891C41.5614 5.52204 41.4997 5.64723 41.3948 5.89761ZM38.6688 5.8932C38.9871 5.8932 39.3053 5.8932 39.6236 5.8932C40.6207 5.8932 41.0042 5.57758 41.0686 4.71623C41.1347 3.82844 40.6569 3.21748 39.7594 3.12226C39.1863 3.06319 38.5983 3.14254 38.0279 3.07201C37.1462 2.96357 36.8439 3.24393 36.8888 4.1661C36.9717 5.88703 36.9126 5.8932 38.6688 5.8932Z" fill="white"/>
<path d="M10.6077 0.723056C9.75606 2.98089 8.98905 5.01567 8.22204 7.05046C8.15063 7.23824 8.09332 7.43132 8.00604 7.61205C7.89231 7.84833 7.65339 7.80777 7.47707 7.75752C7.21258 7.68258 7.37039 7.49303 7.42594 7.34492C8.31549 5.0192 9.21387 2.69613 10.0858 0.364236C10.2057 0.0450889 10.3917 0.00541547 10.6729 0.000125736C11.0697 -0.00692724 11.1138 0.284008 11.2196 0.552903C12.4697 3.81138 13.7225 7.06956 14.9779 10.3274C15.1833 10.8617 15.3861 11.3977 15.5809 11.9355C15.6409 12.1004 15.8578 12.3173 15.5342 12.4204C15.3015 12.4945 15.0837 12.4292 14.9806 12.1506C14.7028 11.3995 14.4093 10.6519 14.1245 9.90427C13.7719 8.96799 13.3954 8.03699 13.0666 7.09013C12.9132 6.64315 12.6875 6.44302 12.1902 6.48358C11.693 6.52413 11.2072 6.46506 10.7153 6.46771C10.4631 6.46771 10.3212 6.33458 10.2939 6.12475C10.2462 5.758 10.5583 5.93609 10.7144 5.89641C10.8022 5.8859 10.891 5.8859 10.9789 5.89641C12.5975 5.88319 12.5984 5.88319 12.0068 4.34211C11.5652 3.19953 11.1243 2.06224 10.6077 0.723056Z" fill="white"/>
<path d="M17.9346 10.4067C16.3195 10.3979 15.3047 9.67496 15.1319 8.40455C15.1037 8.19648 14.945 7.92406 15.3241 7.86852C15.6107 7.82708 15.7552 7.90555 15.8452 8.25379C16.2225 9.71993 18.1612 10.3353 19.3928 9.41577C20.3176 8.72546 20.1669 7.36423 19.0666 6.91901C18.2943 6.60604 17.4594 6.45175 16.666 6.18462C15.8725 5.91749 15.3232 5.42643 15.2889 4.50954C15.2492 3.43308 15.7535 2.70927 16.807 2.39365C18.4221 1.91669 19.9518 2.54176 20.3203 3.85626C20.382 4.07402 20.6456 4.43196 20.1739 4.55186C19.7851 4.6506 19.7411 4.38699 19.6511 4.0749C19.3681 3.10512 18.4336 2.6934 17.1755 2.9332C16.3336 3.09454 15.9624 3.59442 15.9924 4.45488C16.0144 5.07202 16.3812 5.3894 16.9137 5.55691C17.492 5.73764 18.0889 5.86371 18.669 6.04092C20.2101 6.51082 20.8193 7.28753 20.643 8.52621C20.4746 9.7164 19.466 10.4146 17.9346 10.4067Z" fill="white"/>
<path d="M0.730341 6.14165C0.72417 7.12907 0.829083 7.88639 1.23551 8.5767C1.81562 9.56147 2.72545 9.89913 3.81426 9.78099C4.82812 9.67255 5.5343 9.1427 5.77234 8.1209C5.83758 7.8423 5.90194 7.59192 6.25459 7.67215C6.67776 7.76648 6.46529 8.09886 6.41328 8.29722C6.13292 9.34988 5.45848 10.0799 4.37761 10.3064C3.14334 10.5656 1.94962 10.4501 1.03362 9.42481C-0.295867 7.93664 -0.358462 4.84567 0.936641 3.34162C1.81826 2.32423 2.97407 2.09589 4.24625 2.3401C5.28656 2.54023 6.043 3.10182 6.3401 4.1536C6.38683 4.31934 6.59577 4.55121 6.28985 4.65436C6.08884 4.72136 5.88783 4.73635 5.72649 4.44541C4.94626 3.03482 4.25595 2.69187 2.82596 2.93696C1.72569 3.12563 0.974551 4.02576 0.777949 5.4055C0.734749 5.71495 0.737394 6.03321 0.730341 6.14165Z" fill="white"/>
<path d="M22.3961 6.31423C22.3961 5.19986 22.4111 4.08549 22.3882 2.972C22.3803 2.56293 22.5108 2.41834 22.9304 2.43245C23.768 2.46066 24.6055 2.40512 25.4439 2.45361C26.8686 2.53472 27.6118 3.2938 27.6277 4.60389C27.6436 5.8602 26.9383 6.62192 25.5532 6.7718C24.8922 6.83368 24.228 6.85547 23.5643 6.83704C23.1535 6.83263 23.0115 6.95782 23.0353 7.37835C23.075 8.09158 23.0662 8.80834 23.045 9.52246C23.038 9.76667 23.2099 10.1643 22.7382 10.1793C22.2031 10.196 22.375 9.75609 22.3706 9.48719C22.3503 8.42924 22.3626 7.3713 22.3626 6.31335L22.3961 6.31423ZM23.0547 4.61535C23.0547 5.01737 23.06 5.4185 23.0547 5.82052C23.0503 6.04798 23.0944 6.22519 23.373 6.21461C24.2088 6.18287 25.0569 6.33098 25.8777 6.08413C26.6632 5.84785 27.0405 5.26951 26.9559 4.44343C26.8757 3.64997 26.4269 3.19329 25.6176 3.121C25.2729 3.08926 24.9238 3.08133 24.5773 3.08044C23.0565 3.07163 23.0565 3.07692 23.0547 4.61535Z" fill="white"/>
<path d="M40.4417 6.96083C41.1514 6.71838 41.3665 7.06839 41.4265 7.58855C41.5076 8.29384 41.5728 8.99914 41.6301 9.70444C41.6433 9.8693 41.9748 10.1329 41.504 10.1893C41.184 10.2281 41.0068 10.0941 40.9751 9.78907C40.9275 9.33857 40.9134 8.88453 40.8613 8.43402C40.804 7.92885 40.737 7.42015 40.4417 6.96083Z" fill="white"/>
</g>
<defs>
<clipPath id="clip0_1_137">
<rect width="43.154" height="12.21" fill="white" transform="scale(1.01961)"/>
</clipPath>
</defs>
</svg>
