<svg width="50" height="11" viewBox="0 0 50 11" fill="none" xmlns="http://www.w3.org/2000/svg">
<path d="M23.6157 3.99252C23.3147 4.03056 23.0111 4.04544 22.7077 4.03702H20.9497L21.3497 3.27761C21.3764 3.22522 21.4184 3.18205 21.4704 3.1538C21.5223 3.12555 21.5817 3.11355 21.6407 3.11939C22.0627 3.11939 22.4837 3.11939 22.9057 3.11939C23.0447 3.11881 23.1832 3.10323 23.3187 3.07292C23.482 3.04442 23.6323 2.96684 23.7494 2.85077C23.8664 2.73469 23.9444 2.58575 23.9727 2.42425C24.0257 2.18316 24.0257 1.93362 23.9727 1.69253C23.9434 1.50529 23.852 1.33302 23.7127 1.20286C23.5735 1.0727 23.3944 0.992062 23.2037 0.973652C23.083 0.954656 22.961 0.945068 22.8387 0.944975C22.2314 0.944975 21.6244 0.944975 21.0177 0.944975C20.7827 0.944975 20.7027 1.02606 20.7027 1.2614C20.7027 2.14442 20.7027 3.02743 20.7027 3.91045C20.7027 4.00933 20.6787 4.04394 20.5717 4.04196C20.2388 4.03405 19.9058 4.03603 19.5718 4.04196C19.4888 4.04196 19.4548 4.02911 19.4548 3.93616C19.4548 2.6731 19.4548 1.41104 19.4548 0.149963C19.4548 0.0708575 19.4718 0.0441586 19.5548 0.0441586C20.7547 0.0441586 21.9497 0.0441586 23.1467 0.0441586C23.4504 0.041516 23.7523 0.0896581 24.0397 0.186549C24.7187 0.422877 25.0967 0.910366 25.2197 1.59562C25.3027 2.01064 25.2706 2.44014 25.1267 2.83857C24.8727 3.53767 24.3377 3.88375 23.6157 3.99252ZM30.5387 0.00757266C30.2197 0.00757266 29.9037 0.00757266 29.5877 0.00757266C29.509 0.00246602 29.4309 0.0240924 29.3663 0.06887C29.3018 0.113648 29.2546 0.17889 29.2327 0.25379C29.1687 0.438699 29.0977 0.620642 29.0327 0.804562L28.3637 2.64871C28.3457 2.60422 28.3317 2.57554 28.3207 2.54489C28.0207 1.73603 27.7137 0.926187 27.4147 0.115354C27.4079 0.0795332 27.3873 0.0477085 27.3573 0.0265204C27.3273 0.00533241 27.2902 -0.00358118 27.2537 0.00163998C26.9377 0.00856172 26.6207 0.00658408 26.3047 0.00163998C26.2724 -0.00359143 26.2393 0.00380227 26.2125 0.0222565C26.1856 0.0407108 26.167 0.0687782 26.1607 0.100522C25.8667 0.928495 25.57 1.75482 25.2707 2.5795C25.2343 2.67803 25.2372 2.78655 25.2787 2.88307C25.4057 3.20344 25.5267 3.52679 25.6597 3.84618C25.6857 3.90847 25.6597 4.01823 25.7817 4.02021C25.9037 4.02219 25.9617 3.94803 25.9997 3.84618C26.0127 3.81157 26.0287 3.77795 26.0397 3.7473C26.2067 3.22816 26.3907 2.71497 26.5787 2.20375L26.7997 1.60452C26.8227 1.65198 26.8337 1.67275 26.8427 1.6945C27.1087 2.39854 27.3767 3.10258 27.6427 3.80662C27.6551 3.85889 27.6865 3.90481 27.731 3.93563C27.7754 3.96645 27.8298 3.98001 27.8837 3.97374C28.1837 3.96385 28.4917 3.97374 28.7947 3.97374C28.8453 3.97743 28.8961 3.97053 28.9438 3.95349C28.9916 3.93646 29.0351 3.90966 29.0717 3.87485C29.1367 3.79266 29.1846 3.69856 29.2127 3.59798C29.4367 2.9981 29.6607 2.39755 29.8847 1.79635C30.098 1.22811 30.312 0.659866 30.5267 0.0916231C30.5327 0.058992 30.5567 0.033282 30.5387 0.00757266ZM25.1727 3.03534C25.1227 3.066 25.1157 3.10951 25.0967 3.14313C24.9503 3.41705 24.7302 3.64564 24.4607 3.80366C24.3427 3.87189 24.3427 3.91243 24.4607 3.97967C24.4962 4.00211 24.5367 4.01569 24.5787 4.01922C24.8787 4.02515 25.1847 4.02713 25.4877 4.02911C25.5227 4.02911 25.5447 4.02911 25.5277 3.97967L25.1727 3.03534ZM23.8527 1.6332C23.8174 1.49228 23.7362 1.36675 23.6217 1.27598C23.5071 1.1852 23.3655 1.13421 23.2187 1.13087C23.4037 1.60749 23.5887 2.08113 23.7827 2.5795C23.9232 2.28337 23.9481 1.94638 23.8527 1.6332Z" fill="#121212"/>
<path d="M0 7.18459C0.0529995 7.22909 0.104999 7.18459 0.157998 7.18459C1.10599 7.18954 2.05798 7.18459 3.00297 7.18459C3.21809 7.1843 3.43241 7.21054 3.64096 7.26271C3.94507 7.33256 4.2181 7.49798 4.41912 7.73419C4.62014 7.9704 4.73832 8.26467 4.75595 8.5729C4.78077 8.8041 4.76828 9.03774 4.71895 9.26507C4.56195 9.90781 4.14496 10.2648 3.49997 10.3834C3.32187 10.4162 3.14112 10.4327 2.95997 10.4329H1.25999C1.38299 10.2025 1.48199 9.97504 1.61998 9.76739C1.64517 9.73632 1.67827 9.71244 1.71588 9.69819C1.75348 9.68394 1.79424 9.67984 1.83398 9.68631H2.78197C2.89143 9.68681 3.00076 9.67887 3.10897 9.66258C3.26532 9.64973 3.41228 9.58351 3.52467 9.47527C3.63705 9.36703 3.70786 9.2235 3.72496 9.06928C3.75745 8.89275 3.75745 8.71186 3.72496 8.53532C3.66096 8.19319 3.41597 7.98059 3.04297 7.94203C2.83277 7.92507 2.62179 7.91946 2.41098 7.92522C2.05698 7.92522 1.70298 7.92522 1.34899 7.92522C1.13399 7.92522 1.06799 7.98949 1.06799 8.19912C1.06799 8.89822 1.06799 9.59831 1.06799 10.2974C1.06799 10.423 1.03199 10.4477 0.914991 10.4437C0.670993 10.4339 0.425996 10.4437 0.180998 10.4437C0.106999 10.4437 0.0389996 10.4507 0.0439996 10.3449C0.0439996 10.3172 0.0159998 10.3271 0.00199998 10.3449L0 7.18459Z" fill="white"/>
<path d="M50 9.55979C49.955 9.59044 49.969 9.64285 49.958 9.68438C49.9111 9.89213 49.795 10.0783 49.6284 10.2131C49.4618 10.3479 49.2542 10.4236 49.039 10.428C47.947 10.4389 46.855 10.428 45.766 10.428C45.745 10.4062 45.758 10.3884 45.766 10.3706C45.861 10.1936 45.958 10.0186 46.048 9.84062C46.071 9.7892 46.1097 9.74619 46.1587 9.71764C46.2076 9.68908 46.2644 9.67641 46.321 9.68141C47.127 9.68141 47.932 9.68141 48.737 9.68141C48.914 9.68141 49.021 9.60231 49.037 9.46289C49.0457 9.42282 49.0446 9.38128 49.0338 9.34171C49.0231 9.30214 49.0029 9.26568 48.9751 9.23534C48.9472 9.20499 48.9125 9.18165 48.8737 9.16722C48.8349 9.1528 48.7932 9.14772 48.752 9.15239C48.132 9.15239 47.5124 9.15239 46.893 9.15239C46.7793 9.15257 46.6658 9.1453 46.553 9.13064C46.106 9.07032 45.753 8.78257 45.668 8.40188C45.535 7.82144 45.889 7.31417 46.498 7.20738C46.5935 7.19061 46.6901 7.18168 46.787 7.18068C47.6597 7.18068 48.5323 7.18068 49.405 7.18068C49.43 7.18068 49.455 7.18068 49.505 7.18068C49.382 7.40416 49.287 7.62961 49.151 7.8333C49.095 7.91735 49.006 7.90846 48.923 7.90846H46.961C46.924 7.90846 46.885 7.90846 46.848 7.90846C46.8131 7.9079 46.7785 7.91436 46.7462 7.92743C46.7139 7.94051 46.6846 7.95993 46.6601 7.98452C46.6356 8.00911 46.6164 8.03836 46.6037 8.07049C46.5909 8.10263 46.5849 8.13699 46.586 8.17148C46.5871 8.20494 46.5951 8.23782 46.6095 8.26811C46.6239 8.29839 46.6445 8.32543 46.6699 8.34757C46.6953 8.36971 46.725 8.38648 46.7571 8.39684C46.7893 8.4072 46.8233 8.41093 46.857 8.40781H48.88C49.505 8.40781 49.845 8.67974 49.98 9.28589C49.98 9.29182 49.992 9.29577 49.998 9.30072L50 9.55979Z" fill="#0298D9"/>
<path d="M34.0054 10.5635C34.0049 10.5705 34.0049 10.5775 34.0054 10.5845H33.5504C33.5509 10.5775 33.5509 10.5705 33.5504 10.5635H34.0054Z" fill="#D3D2D2"/>
<path d="M26.8874 9.67259C27.0984 9.08721 27.3024 8.51963 27.5074 7.95303C27.5894 7.7256 27.6744 7.49916 27.7524 7.27074C27.7576 7.24272 27.7737 7.21784 27.7973 7.20154C27.8209 7.18524 27.8501 7.17883 27.8784 7.18373C28.1264 7.18373 28.3784 7.19065 28.6244 7.18373C28.6633 7.17583 28.7037 7.18346 28.7369 7.20495C28.77 7.22645 28.7933 7.26006 28.8014 7.29843C29.0704 8.03313 29.3454 8.76584 29.6184 9.49955C29.6364 9.54602 29.6554 9.59151 29.6744 9.63996C29.7274 9.62018 29.7244 9.57272 29.7374 9.54108C30.0081 8.79353 30.2774 8.04532 30.5454 7.29645C30.552 7.26095 30.5725 7.22948 30.6025 7.20891C30.6325 7.18834 30.6695 7.18035 30.7054 7.18669C30.9544 7.19361 31.2054 7.18669 31.4524 7.18669C31.5234 7.18669 31.5524 7.1946 31.5204 7.27569C31.1604 8.26451 30.8054 9.2474 30.4464 10.2333C30.3814 10.4093 30.3354 10.431 30.1464 10.436C29.8134 10.436 29.4804 10.436 29.1464 10.436C29.1123 10.4415 29.0773 10.4338 29.0488 10.4145C29.0203 10.3951 29.0005 10.3656 28.9934 10.3321C28.7814 9.76653 28.5634 9.20389 28.3474 8.64026C28.3314 8.59774 28.3144 8.5572 28.2874 8.48996C28.1334 8.91318 27.9874 9.31068 27.8424 9.7072C27.7754 9.89112 27.7044 10.0731 27.6424 10.258C27.6282 10.3128 27.5945 10.3608 27.5476 10.3933C27.5006 10.4258 27.4435 10.4405 27.3864 10.435C27.0325 10.435 26.6785 10.435 26.3245 10.435C26.2675 10.435 26.2335 10.4241 26.2115 10.3648C25.8115 9.31002 25.4115 8.25891 25.0115 7.21141C25.0115 7.21141 25.0115 7.2035 25.0175 7.1857C25.3115 7.1857 25.6085 7.1857 25.9055 7.1857C25.9795 7.1857 25.9775 7.24404 25.9935 7.28459C26.2728 8.02884 26.5511 8.77342 26.8285 9.51833C26.8415 9.5658 26.8615 9.61227 26.8874 9.67259Z" fill="#0298D9"/>
<path d="M22.1791 9.47265C22.3301 9.07712 22.4791 8.68852 22.6221 8.30485C22.7421 7.99436 22.8681 7.68585 22.9851 7.37437C23.0013 7.31401 23.0389 7.26141 23.091 7.22619C23.1432 7.19097 23.2064 7.17547 23.2691 7.18254C23.6741 7.18946 24.0791 7.18748 24.4831 7.18254C24.5671 7.18254 24.5891 7.20528 24.5891 7.28637C24.5891 8.30288 24.5891 9.31905 24.5891 10.3349C24.5891 10.4101 24.5701 10.4338 24.4891 10.4338C24.2241 10.4288 23.9581 10.4269 23.6891 10.4338C23.5891 10.4338 23.5731 10.4012 23.5741 10.3131C23.5741 9.58439 23.5741 8.85563 23.5741 8.12687V7.99337C23.5352 8.02854 23.51 8.07616 23.5031 8.12785C23.2381 8.85958 22.9731 9.59131 22.7151 10.325C22.7074 10.3606 22.6859 10.3918 22.6553 10.4119C22.6247 10.432 22.5873 10.4395 22.5511 10.4328C22.3111 10.4279 22.0701 10.4269 21.8301 10.4328C21.7942 10.4392 21.7572 10.4314 21.7271 10.411C21.697 10.3907 21.6762 10.3594 21.6691 10.324C21.4031 9.5923 21.1311 8.86057 20.8531 8.12884C20.8426 8.07763 20.8173 8.03056 20.7801 7.99337V8.12291C20.7801 8.83882 20.7801 9.55571 20.7801 10.2716C20.7801 10.4615 20.8051 10.4318 20.6111 10.4338C20.3661 10.4338 20.1221 10.4338 19.8771 10.4338C19.8031 10.4338 19.7771 10.418 19.7771 10.3349C19.7771 9.36091 19.7771 8.38594 19.7771 7.41195C19.7771 7.24484 19.8471 7.18056 20.0191 7.18056C20.3981 7.18056 20.7771 7.18056 21.1571 7.18056C21.1953 7.17462 21.2343 7.18327 21.2663 7.20476C21.2982 7.22625 21.3207 7.25896 21.3291 7.29625C21.5941 7.98348 21.8631 8.66973 22.1291 9.35498C22.1451 9.39157 22.1601 9.42519 22.1791 9.47265Z" fill="white"/>
<path d="M39.7702 9.43427L40.9352 10.4122C40.8952 10.4488 40.8562 10.433 40.8212 10.433C40.4842 10.433 40.1472 10.433 39.8102 10.433C39.7392 10.4354 39.6702 10.4097 39.6182 10.3618C39.3182 10.1027 39.0182 9.84858 38.7232 9.58951C38.6945 9.56269 38.6605 9.54201 38.6234 9.52874C38.5862 9.51547 38.5467 9.5099 38.5072 9.51238C38.2332 9.51733 37.9593 9.51238 37.6853 9.51238C37.6083 9.51238 37.5853 9.49755 37.6273 9.4224C37.7153 9.26221 37.7993 9.09905 37.8823 8.93491C37.9053 8.88121 37.9451 8.83616 37.9958 8.8063C38.0465 8.77643 38.1055 8.7633 38.1642 8.76879C38.4642 8.77373 38.7712 8.77373 39.0752 8.76879C39.1641 8.77117 39.2513 8.74472 39.3235 8.69347C39.3958 8.64223 39.4491 8.569 39.4752 8.48499C39.5047 8.40208 39.5079 8.31227 39.4845 8.2275C39.4611 8.14272 39.4122 8.06699 39.3442 8.01036C39.2576 7.94131 39.1484 7.90612 39.0372 7.91147H37.5373C37.3523 7.91147 37.2793 7.98663 37.2793 8.17253C37.2793 8.88052 37.2793 9.58852 37.2793 10.2955C37.2793 10.3944 37.2563 10.431 37.1493 10.428C36.8873 10.4191 36.6263 10.428 36.3653 10.428C36.2953 10.428 36.2653 10.4112 36.2653 10.3381C36.2653 9.31363 36.2653 8.28953 36.2653 7.26577C36.2653 7.18963 36.2953 7.17678 36.3653 7.17678C37.3653 7.17678 38.3712 7.17678 39.3742 7.18172C39.6293 7.19328 39.8736 7.28655 40.0704 7.44745C40.2672 7.60835 40.4057 7.82815 40.4651 8.07371C40.5244 8.31927 40.5015 8.57726 40.3996 8.80877C40.2977 9.04028 40.1224 9.23274 39.9002 9.35714L39.7702 9.43427Z" fill="#0298D9"/>
<path d="M9.90674 10.4329C9.51574 10.4329 9.12474 10.4329 8.73375 10.4329C8.67475 10.4329 8.64375 10.3923 8.60675 10.3617C8.30675 10.1055 8.00675 9.84944 7.70676 9.58938C7.68024 9.56415 7.64888 9.54441 7.61454 9.53134C7.58019 9.51826 7.54355 9.51211 7.50676 9.51325C7.20676 9.51325 6.89977 9.51325 6.56977 9.51325C6.70177 9.27494 6.79377 9.03663 6.94777 8.82997C6.99077 8.77163 7.05876 8.77558 7.12176 8.77459C7.42976 8.77459 7.73676 8.77459 8.04476 8.77459C8.10945 8.77824 8.17412 8.7671 8.23376 8.74205C8.2934 8.71699 8.34641 8.67869 8.38867 8.63011C8.43093 8.58154 8.4613 8.52399 8.47745 8.46194C8.49359 8.39988 8.49506 8.33498 8.48175 8.27227C8.47044 8.18884 8.43303 8.11101 8.37475 8.04966C8.31647 7.9883 8.24025 7.94652 8.15675 7.93014C8.10703 7.92031 8.05646 7.91534 8.00576 7.91531H6.53777C6.33777 7.91531 6.26877 7.98254 6.26877 8.18822C6.26877 8.89226 6.26877 9.59631 6.26877 10.3003C6.26877 10.3992 6.24677 10.4368 6.13877 10.4338C5.88178 10.4249 5.62378 10.4338 5.36678 10.4338C5.28978 10.4338 5.25678 10.422 5.25778 10.335C5.25778 9.31845 5.25778 8.30194 5.25778 7.28543C5.25778 7.20236 5.28278 7.18654 5.36378 7.18654C6.34577 7.18654 7.32876 7.18654 8.31175 7.18654C8.57305 7.18828 8.82646 7.27529 9.0326 7.43408C9.23875 7.59286 9.38609 7.81452 9.45174 8.06462C9.51627 8.31509 9.49411 8.57972 9.38881 8.81629C9.28351 9.05286 9.10112 9.24774 8.87075 9.36987C8.77075 9.42326 8.76275 9.44699 8.85375 9.52116C9.21074 9.81286 9.56174 10.1144 9.91474 10.4111L9.90674 10.4329Z" fill="white"/>
<path d="M34.0049 10.5635H33.5519C33.2993 10.5499 33.05 10.4999 32.8119 10.4152C32.1969 10.1828 31.8839 9.72298 31.8049 9.09606C31.7648 8.80636 31.7849 8.51162 31.8639 8.22985C31.9323 7.96204 32.0745 7.71826 32.2747 7.52568C32.4749 7.3331 32.7253 7.19929 32.9979 7.13918C33.4861 7.01632 33.9968 7.00988 34.4879 7.12039C35.2529 7.28948 35.7289 7.85905 35.7709 8.63527C35.7918 8.90593 35.764 9.17811 35.6889 9.43919C35.4979 10.0592 35.0419 10.3776 34.4259 10.5101C34.2873 10.539 34.1465 10.5569 34.0049 10.5635ZM32.7179 8.80337C32.7179 8.85677 32.7179 8.91115 32.7179 8.96455C32.7469 9.45303 33.0009 9.74671 33.4699 9.82582C33.6865 9.8629 33.9081 9.86089 34.1239 9.81988C34.5339 9.74077 34.7689 9.50642 34.8339 9.10002C34.873 8.87787 34.8666 8.65021 34.8149 8.43058C34.7857 8.27141 34.7078 8.12493 34.5917 8.01088C34.4757 7.89684 34.3271 7.82072 34.1659 7.79279C33.9798 7.75756 33.7897 7.74791 33.6009 7.76412C33.2279 7.79082 32.9359 7.93716 32.7939 8.30105C32.7334 8.46139 32.7075 8.63252 32.7179 8.80337Z" fill="#0298D9"/>
<path d="M19.3582 10.4328C19.0012 10.4328 18.6582 10.4328 18.3112 10.4328C18.2901 10.4343 18.2691 10.4292 18.2511 10.4182C18.2331 10.4072 18.2192 10.3908 18.2112 10.3715C18.1642 10.2785 18.1112 10.1895 18.0662 10.0946C18.0425 10.0302 17.9976 9.97563 17.9385 9.93973C17.8795 9.90382 17.81 9.88871 17.7412 9.89684C17.2862 9.90574 16.8302 9.89684 16.3752 9.90179C16.2752 9.90179 16.2452 9.88794 16.3022 9.78906C16.3912 9.63381 16.4692 9.47264 16.5522 9.31344C16.5747 9.26164 16.6133 9.21829 16.6624 9.18966C16.7115 9.16103 16.7685 9.14862 16.8252 9.15424C17.0312 9.16314 17.2382 9.15424 17.4452 9.15424C17.5252 9.15424 17.5542 9.14435 17.5082 9.0603C17.3082 8.69444 17.1082 8.3266 16.9152 7.95777C16.8572 7.97161 16.8542 8.025 16.8342 8.06159C16.4342 8.81705 16.0379 9.57514 15.6452 10.3359C15.6331 10.368 15.6105 10.3952 15.581 10.4131C15.5514 10.4311 15.5167 10.4387 15.4822 10.4348C15.1502 10.4298 14.8172 10.4348 14.4822 10.4348C14.4732 10.3922 14.4982 10.3665 14.5132 10.3359C15.0282 9.39155 15.5502 8.4502 16.0552 7.50093C16.1792 7.26757 16.3212 7.1499 16.6032 7.1766C16.8892 7.19358 17.176 7.19523 17.4622 7.18154C17.4886 7.17787 17.5156 7.1826 17.5391 7.19504C17.5627 7.20748 17.5816 7.22699 17.5932 7.25076C18.1712 8.29429 18.7505 9.33684 19.3312 10.3784C19.3432 10.3893 19.3462 10.4021 19.3582 10.4328Z" fill="white"/>
<path d="M42.3758 8.62829C42.8758 8.15564 43.3488 7.71067 43.8178 7.26175C43.8435 7.23532 43.8747 7.21467 43.9092 7.20119C43.9437 7.18771 43.9807 7.18172 44.0177 7.18363C44.3947 7.18363 44.7727 7.18363 45.1827 7.18363L44.9887 7.35865C44.4887 7.80263 43.9957 8.24859 43.4958 8.68861C43.4228 8.75289 43.4238 8.77959 43.4958 8.84188C44.0957 9.34222 44.6957 9.84751 45.2957 10.3508C45.3197 10.3716 45.3557 10.3825 45.3617 10.4319H44.0997C44.0417 10.4319 44.0107 10.3864 43.9737 10.3548C43.4731 9.92893 42.9731 9.50044 42.4738 9.06931L42.3998 9.01888C42.3578 9.05448 42.3778 9.09898 42.3778 9.13655C42.3778 9.53208 42.3778 9.92761 42.3778 10.3231C42.3778 10.4082 42.3578 10.4378 42.2668 10.4359C42.0018 10.4299 41.7358 10.4299 41.4668 10.4359C41.3798 10.4359 41.3668 10.4072 41.3668 10.3291C41.3668 9.31388 41.3668 8.29803 41.3668 7.28152C41.3668 7.20538 41.3858 7.18264 41.4668 7.18264C41.7334 7.18725 42.0031 7.18725 42.2758 7.18264C42.3638 7.18264 42.3758 7.21329 42.3758 7.29042C42.3758 7.68595 42.3758 8.08148 42.3758 8.47701V8.62829Z" fill="#0298D9"/>
<path d="M14.2833 7.18474C14.1663 7.4003 14.0603 7.59807 13.9533 7.79484C13.9291 7.83642 13.8928 7.8698 13.8491 7.89062C13.8054 7.91143 13.7563 7.91872 13.7083 7.91152C13.0213 7.91152 12.3343 7.91152 11.6474 7.91152C11.4264 7.91152 11.3624 7.97481 11.3624 8.19433C11.3624 8.46131 11.3624 8.46131 11.6264 8.46131H13.7013C13.5863 8.67193 13.4813 8.86475 13.3743 9.0546C13.3223 9.14854 13.2293 9.15348 13.1333 9.15348C12.6313 9.15348 12.1313 9.15348 11.6334 9.15348C11.4334 9.15348 11.3644 9.21776 11.3644 9.42343C11.3644 9.72008 11.3644 10.0236 11.3644 10.3233C11.3644 10.3984 11.3534 10.433 11.2644 10.431C10.9954 10.4251 10.7254 10.431 10.4554 10.431C10.3814 10.431 10.3554 10.4162 10.3554 10.3322C10.3554 9.3117 10.3554 8.29156 10.3554 7.27175C10.3554 7.20748 10.3644 7.17287 10.4424 7.17287C11.7124 7.18474 12.9853 7.18474 14.2833 7.18474Z" fill="white"/>
<path d="M14.2997 9.70024C14.1937 9.90394 14.0997 10.0879 13.9997 10.2728C13.9767 10.3244 13.9381 10.3677 13.8892 10.3967C13.8404 10.4258 13.7836 10.4391 13.7267 10.4349C13.0407 10.4349 12.3544 10.4349 11.6677 10.4349C11.5807 10.4349 11.5677 10.4171 11.6067 10.3361C11.6987 10.168 11.7847 9.9959 11.8737 9.82681C11.8875 9.78922 11.9124 9.75662 11.9452 9.73332C11.9781 9.71002 12.0173 9.6971 12.0577 9.69628L14.2997 9.70024Z" fill="white"/>
</svg>
