<svg width="36" height="13" viewBox="0 0 36 13" fill="none" xmlns="http://www.w3.org/2000/svg">
<g clip-path="url(#clip0_1_455)">
<path d="M28.3834 6.06824C28.2876 5.95999 28.1686 5.87472 28.0354 5.81875C27.8901 5.75852 27.7341 5.72852 27.5768 5.73057C27.4183 5.72875 27.261 5.75873 27.1143 5.81875C26.9779 5.8751 26.8553 5.9602 26.7548 6.06824C26.654 6.17772 26.576 6.30619 26.5254 6.44615C26.4186 6.75473 26.4186 7.09025 26.5254 7.39883C26.5754 7.54022 26.6534 7.67005 26.7548 7.7805C26.8555 7.88878 26.9765 7.97623 27.1109 8.03789C27.2548 8.10361 27.4115 8.13661 27.5697 8.13453C27.7258 8.13693 27.8807 8.10677 28.0245 8.04597C28.1585 7.98774 28.2784 7.90144 28.3762 7.7929C28.4771 7.68038 28.555 7.54927 28.6056 7.40691C28.6606 7.25064 28.6877 7.08596 28.6859 6.92033C28.6875 6.75876 28.6603 6.59819 28.6056 6.44615C28.5555 6.30754 28.4802 6.17941 28.3834 6.06824Z" fill="#200E32"/>
<path d="M35.3374 2.52828L25.1974 0.0840858C24.8086 -0.00963782 24.4051 -0.0251919 24.0102 0.0383272C23.6154 0.101846 23.2371 0.243173 22.8974 0.454099L19.4943 2.56701C19.0545 2.84 18.7362 3.27136 18.605 3.77213C18.4739 4.27291 18.5399 4.80491 18.7894 5.25845L20.9576 9.19943C21.122 9.49814 21.3474 9.75895 21.6191 9.96498C21.8908 10.171 22.2027 10.3176 22.5347 10.3954L32.4593 12.7181C32.8033 12.7987 33.1653 12.7394 33.4657 12.5532C33.766 12.367 33.9802 12.0692 34.0611 11.7252L35.9789 3.57083C36.0314 3.34755 35.9935 3.11255 35.8733 2.91719C35.753 2.72184 35.5604 2.58201 35.3374 2.52828ZM20.7403 5.68712C20.5028 5.68712 20.2707 5.61672 20.0733 5.48481C19.8759 5.3529 19.722 5.16541 19.6312 4.94605C19.5403 4.72669 19.5165 4.48532 19.5629 4.25245C19.6092 4.01958 19.7235 3.80567 19.8914 3.63778C20.0593 3.46989 20.2732 3.35556 20.5061 3.30924C20.7389 3.26292 20.9803 3.28669 21.1997 3.37755C21.419 3.46841 21.6065 3.62228 21.7384 3.8197C21.8703 4.01712 21.9408 4.24922 21.9408 4.48665C21.9408 4.80503 21.8143 5.11038 21.5891 5.33551C21.364 5.56065 21.0587 5.68712 20.7403 5.68712ZM25.504 7.73066C25.411 7.94266 25.274 8.13253 25.1022 8.28775C24.9334 8.43759 24.7367 8.5526 24.5233 8.62618C24.3073 8.70263 24.0798 8.74173 23.8506 8.74181C23.4226 8.74181 23.0453 8.63708 22.7189 8.42763C22.3926 8.21818 22.1556 7.89323 22.0081 7.45277L22.6956 7.20478C22.7704 7.44791 22.9154 7.66347 23.1125 7.82429C23.3085 7.9841 23.5493 8.06401 23.835 8.06401C23.9718 8.06411 24.1076 8.04032 24.2362 7.99369C24.3652 7.94765 24.4836 7.87603 24.5842 7.78312C24.6889 7.6856 24.7721 7.56741 24.8287 7.43604C24.8898 7.29816 24.9204 7.13572 24.9204 6.94871C24.9204 6.7449 24.8797 6.57405 24.7982 6.43618C24.7198 6.30187 24.6115 6.18742 24.4818 6.1017C24.3476 6.01458 24.1985 5.95289 24.042 5.9197C23.8839 5.88446 23.7225 5.86643 23.5605 5.86593H23.3311V5.21333H23.568C23.7183 5.21374 23.8682 5.19849 24.0153 5.16783C24.153 5.14062 24.2841 5.08712 24.4015 5.01027C24.5156 4.93334 24.6088 4.82926 24.6728 4.70738C24.7416 4.58015 24.776 4.42241 24.776 4.23414C24.7782 4.09628 24.7521 3.95942 24.6995 3.83198C24.6515 3.71746 24.5799 3.61433 24.4895 3.52927C24.4003 3.44611 24.2966 3.37997 24.1836 3.33412C24.0684 3.28697 23.945 3.26295 23.8205 3.26342C23.5909 3.26342 23.3959 3.32684 23.2354 3.45369C23.075 3.58054 22.954 3.75677 22.8724 3.98239L22.1995 3.72631C22.3321 3.37385 22.5452 3.09696 22.8387 2.89566C23.1323 2.69436 23.4699 2.59409 23.8517 2.59484C24.0691 2.5936 24.2851 2.62861 24.491 2.69844C24.6854 2.76356 24.8651 2.86621 25.0199 3.00058C25.1738 3.13795 25.2957 3.30738 25.3771 3.49694C25.4655 3.69548 25.5097 3.92448 25.5097 4.18394C25.5124 4.48967 25.4173 4.78826 25.2382 5.03603C25.1546 5.15135 25.0526 5.2521 24.9362 5.33422C24.8201 5.41624 24.6908 5.47779 24.554 5.51622V5.53276C24.7094 5.56464 24.8581 5.62323 24.9936 5.70592C25.1272 5.78721 25.2451 5.89207 25.3414 6.0154C25.4406 6.14349 25.5181 6.28705 25.5708 6.44031C25.6281 6.60758 25.6565 6.78337 25.6548 6.96017C25.6548 7.25122 25.6043 7.50805 25.5034 7.73066H25.504ZM29.2967 7.672C29.2091 7.89534 29.0762 8.09814 28.9065 8.26766C28.7368 8.43717 28.5338 8.56974 28.3103 8.65701C27.8315 8.84067 27.3013 8.8392 26.8235 8.65287C26.6015 8.56432 26.3997 8.43174 26.2303 8.26312C26.062 8.09274 25.9294 7.89042 25.8404 7.66805C25.7447 7.43049 25.6966 7.17642 25.699 6.92032C25.699 6.60946 25.7474 6.32807 25.8441 6.07613C25.9491 5.80859 26.077 5.55067 26.2266 5.30526L27.8999 2.84828H28.7792L27.0666 5.24905L27.0743 5.26503C27.1506 5.2169 27.2526 5.17929 27.38 5.15222C27.5006 5.12595 27.6236 5.1124 27.747 5.1118C27.9743 5.11039 28.1994 5.15563 28.4085 5.24472C28.6111 5.33044 28.7944 5.45616 28.9473 5.61436C29.1035 5.77765 29.2256 5.97034 29.3066 6.18123C29.3949 6.40938 29.439 6.6522 29.4367 6.89681C29.4374 7.18047 29.3905 7.43886 29.2961 7.672H29.2967ZM33.081 7.672C32.9934 7.89529 32.8605 8.09805 32.6908 8.26756C32.521 8.43707 32.3181 8.56966 32.0947 8.65701C31.6158 8.84067 31.0856 8.83919 30.6077 8.65287C30.3859 8.56432 30.1844 8.43173 30.0152 8.26312C29.8468 8.09284 29.7142 7.89049 29.6253 7.66805C29.5296 7.43049 29.4815 7.17642 29.4839 6.92032C29.4839 6.60946 29.5323 6.32807 29.6291 6.07613C29.7339 5.8086 29.8618 5.55068 30.0113 5.30526L31.6846 2.84828H32.564L30.8517 5.24811L30.8594 5.26409C30.936 5.21596 31.038 5.17835 31.1653 5.15128C31.2859 5.125 31.4088 5.11145 31.5322 5.11086C31.7594 5.10943 31.9845 5.15467 32.1936 5.24378C32.3963 5.32948 32.5796 5.4552 32.7326 5.61342C32.8891 5.77679 33.0115 5.9696 33.0929 6.18066C33.181 6.40883 33.2251 6.65165 33.2228 6.89625C33.2222 7.18028 33.1747 7.43886 33.0805 7.672H33.081Z" fill="#200E32"/>
<path d="M32.1685 6.06824C32.0728 5.96 31.9539 5.87472 31.8207 5.81874C31.6754 5.75854 31.5193 5.72853 31.362 5.73057C31.2034 5.72875 31.0462 5.75873 30.8994 5.81874C30.7631 5.87519 30.6405 5.96028 30.54 6.06824C30.4392 6.17773 30.3613 6.3062 30.3108 6.44615C30.2037 6.75468 30.2037 7.09029 30.3108 7.39882C30.3606 7.54021 30.4386 7.67003 30.54 7.78049C30.6406 7.88864 30.7613 7.97607 30.8955 8.03789C31.0394 8.10361 31.1961 8.13661 31.3543 8.13453C31.5104 8.13691 31.6654 8.10675 31.8092 8.04597C31.9432 7.98773 32.0631 7.90143 32.1608 7.7929C32.2617 7.68043 32.3397 7.5493 32.3902 7.40691C32.4453 7.25067 32.4725 7.08598 32.4707 6.92033C32.4723 6.75874 32.4451 6.59815 32.3902 6.44615C32.3403 6.30758 32.2651 6.17945 32.1685 6.06824Z" fill="#200E32"/>
<path d="M0 7.63042L0.612177 7.10398C0.943272 7.78572 1.48099 8.12302 2.077 8.12302C2.77266 8.12302 3.20209 7.70036 3.20209 7.15719C3.20209 6.81218 2.98718 6.51906 2.56509 6.269C2.45755 6.20884 1.53909 5.38665 1.38191 5.29133C0.769358 4.88596 0.463269 4.3772 0.463269 3.77367C0.463269 3.2822 0.628911 2.87684 0.96809 2.54931C1.30652 2.21314 1.79686 2.10278 2.34962 2.14546C3.1453 2.20656 3.51306 2.69991 3.9517 3.32995L3.39724 3.88178C3.06634 3.4249 2.75405 3.05677 2.25675 2.95862C1.71301 2.85127 1.34863 3.20511 1.34863 3.72234C1.34863 4.0587 1.52236 4.32606 1.87 4.54152C1.97754 4.61052 3.07818 5.54477 3.21882 5.63107C3.80618 6.00165 4.10418 6.49312 4.10418 7.11394C4.10418 7.65731 3.91391 8.09707 3.52491 8.43325C3.14418 8.7696 2.66436 8.9422 2.08509 8.9422C1.19972 8.94126 0.397088 8.48401 0 7.63042Z" fill="#200E32"/>
<path d="M8.25424 3.99112H9.05462V8.83138H8.25424V8.14494C7.83591 8.67796 7.28784 8.94927 6.60911 8.94927C5.93921 8.94927 5.3825 8.70485 4.93859 8.20849C4.49469 7.71213 4.27734 7.10691 4.27734 6.37534C4.27734 5.65299 4.49488 5.05698 4.93859 4.5875C5.3825 4.10882 5.93921 3.87305 6.60911 3.87305C7.27036 3.87305 7.81861 4.14398 8.25367 4.69486L8.25424 3.99112ZM7.8626 5.17411C7.56686 4.84001 7.18406 4.66835 6.70537 4.66835C6.22668 4.66835 5.84407 4.84001 5.55697 5.17411C5.26988 5.50821 5.12134 5.92354 5.12134 6.41106C5.12134 6.89859 5.26931 7.31353 5.55641 7.64839C5.84351 7.98324 6.22631 8.15396 6.70481 8.15396C7.18331 8.15396 7.56629 7.98249 7.86204 7.64839C8.15779 7.31429 8.30575 6.89896 8.30575 6.40204C8.30575 5.92354 8.15798 5.50859 7.86204 5.17411H7.8626Z" fill="#200E32"/>
<path d="M10.3407 8.83749H9.54688V2.31055H10.3407V8.83749Z" fill="#200E32"/>
<path d="M15.2497 6.73726H11.4715C11.6131 7.56885 12.144 8.14249 13.1349 8.13553C14.1165 8.12857 14.3194 7.48519 14.6971 7.06949L15.3491 7.50192C15.0295 7.97196 14.4534 8.94099 13.1174 8.94099C11.3299 8.94005 10.5859 7.63297 10.5859 6.36236C10.5859 5.62215 10.8072 5.01899 11.2496 4.53467C11.7009 4.05015 12.276 3.8125 12.9839 3.8125C13.6562 3.8125 14.2049 4.03173 14.6296 4.47977C15.0631 4.92743 15.2754 5.53077 15.2754 6.2896C15.2762 6.35334 15.2675 6.49961 15.2497 6.73726ZM14.4004 5.97843C14.356 5.12842 13.7632 4.589 12.9846 4.589C12.2061 4.589 11.6121 5.16508 11.4715 5.97843H14.4004Z" fill="#200E32"/>
<path d="M15.2148 7.9403L15.7857 7.48324C16.0423 7.97471 16.4813 8.2165 16.8861 8.2165C17.3578 8.2165 17.6724 7.93184 17.6724 7.57856C17.6724 7.33696 17.5408 7.13861 17.2668 6.99214C17.1758 6.94044 16.9848 6.85414 16.7124 6.73362C16.44 6.61311 16.2574 6.52681 16.1662 6.47491C15.7112 6.21621 15.4878 5.84544 15.4878 5.35397C15.4878 4.98301 15.6195 4.6726 15.8849 4.43119C16.1497 4.18113 16.4973 4.06042 16.9359 4.06042C17.4985 4.06042 18.0452 4.31048 18.3425 4.79368L17.8378 5.29361C17.5977 4.94015 17.2834 4.75909 16.8861 4.75909C16.4888 4.75909 16.2491 5.00915 16.2491 5.31956C16.2491 5.56097 16.3732 5.74203 16.6214 5.86274L17.1102 6.08685C17.3749 6.19966 17.5736 6.29454 17.706 6.37151C18.2107 6.63886 18.4581 7.02693 18.4581 7.53551C18.4581 7.93203 18.3092 8.26877 18.0114 8.53575C17.7136 8.80273 17.3328 8.94111 16.8611 8.94111C16.1995 8.94073 15.554 8.60437 15.2148 7.9403Z" fill="#200E32"/>
<path d="M20.6667 4.9885C20.5595 4.98855 20.4545 4.9584 20.3637 4.9015C20.2729 4.8446 20.2 4.76326 20.1532 4.66681C19.94 4.22949 19.1859 3.05082 18.2676 2.85228C17.8057 2.75263 17.3364 2.90661 16.8335 3.32232C16.0637 3.961 15.2885 4.17459 14.5295 3.95969C12.9613 3.51447 12.1981 1.37617 12.116 1.13382C12.092 1.06287 12.0822 0.987894 12.0872 0.913167C12.0922 0.83844 12.1119 0.765428 12.1451 0.698298C12.2121 0.562725 12.3303 0.459345 12.4736 0.410902C12.6169 0.362458 12.7735 0.372919 12.9091 0.439983C13.0447 0.507046 13.1481 0.62522 13.1965 0.768506C13.3674 1.26975 13.9969 2.62422 14.8424 2.86299C15.2231 2.97092 15.6368 2.83366 16.106 2.44504C16.8869 1.79845 17.6965 1.56137 18.5126 1.73866C20.1626 2.09871 21.1384 4.08603 21.1792 4.17045C21.2212 4.25734 21.2405 4.35346 21.2351 4.44982C21.2298 4.54617 21.2002 4.63959 21.1489 4.72134C21.0976 4.80309 21.0264 4.87049 20.942 4.91721C20.8576 4.96394 20.7626 4.98847 20.6662 4.9885H20.6667Z" fill="#F8AF00"/>
</g>
<defs>
<clipPath id="clip0_1_455">
<rect width="36" height="12.754" fill="white"/>
</clipPath>
</defs>
</svg>
