<svg width="50" height="8" viewBox="0 0 50 8" fill="none" xmlns="http://www.w3.org/2000/svg">
<g clip-path="url(#clip0_1_296)">
<path d="M3.6 7.45267C3.58749 7.41865 3.55798 7.43316 3.53547 7.43116C1.96928 7.28959 0.857789 6.50725 0.263028 5.05611C-0.478799 3.24582 0.40509 1.12688 2.20338 0.328532C2.70005 0.104361 3.23978 -0.00834587 3.78465 -0.00167323C4.32952 0.00499941 4.86633 0.130891 5.35736 0.367157C5.84839 0.603423 6.28173 0.944333 6.62695 1.36594C6.97217 1.78755 7.22089 2.27963 7.35565 2.80762C7.88388 4.87203 6.53329 6.98096 4.43937 7.36913C4.25886 7.40418 4.07589 7.42509 3.89212 7.43166C3.87212 7.43166 3.8471 7.42315 3.8381 7.45267H3.6ZM5.75094 3.57196H4.80953C4.62845 3.57196 4.63345 3.57196 4.62695 3.75454C4.62695 3.84208 4.64446 3.87009 4.738 3.86959C5.30825 3.86459 5.8785 3.86959 6.44875 3.86509C6.53979 3.86509 6.58281 3.87509 6.5553 3.98064C6.53279 4.06668 6.53529 4.15922 6.51778 4.24676C6.20614 5.78693 4.76251 6.76286 3.20782 6.48474C1.63113 6.20312 0.596174 4.59791 0.988847 3.04473C1.30599 1.79168 2.36895 0.943804 3.69004 0.893782C3.89363 0.885778 3.89012 0.885777 3.88662 0.676685C3.88662 0.62016 3.87011 0.603653 3.81309 0.603653C3.61112 0.601327 3.40932 0.616053 3.20982 0.647673C1.51808 0.933298 0.362071 2.56202 0.658702 4.24376C0.800454 5.0549 1.25713 5.77711 1.92917 6.25293C2.60121 6.72876 3.43411 6.91961 4.24628 6.78387C5.77395 6.53376 6.89745 5.19067 6.86293 3.6575C6.86293 3.58547 6.83892 3.56746 6.76889 3.56846C6.43024 3.57396 6.09109 3.57196 5.75144 3.57196H5.75094ZM3.58699 3.71802C3.58699 4.22525 3.58699 4.73197 3.58699 5.23919C3.58699 5.32073 3.6035 5.35124 3.69304 5.34874C3.93814 5.34224 4.18325 5.34874 4.42886 5.34874C4.63595 5.34874 4.63295 5.34874 4.63395 5.14615C4.63395 5.07812 4.61894 5.05211 4.54491 5.05461C4.36433 5.06061 4.18375 5.05111 4.00367 5.05861C3.91063 5.06261 3.88262 5.0411 3.88312 4.94256C3.88762 4.05067 3.88612 3.15878 3.88612 2.26688C3.88612 2.0838 3.88612 2.08931 3.70754 2.0818C3.614 2.0783 3.58499 2.10081 3.58599 2.19886C3.58999 2.70408 3.58699 3.2113 3.58699 3.71802ZM2.10184 2.5275C2.10184 2.61567 2.12799 2.70186 2.17699 2.77517C2.22598 2.84847 2.29562 2.9056 2.37709 2.93932C2.45856 2.97304 2.5482 2.98183 2.63467 2.96459C2.72114 2.94736 2.80055 2.90486 2.86286 2.84248C2.92518 2.7801 2.96759 2.70063 2.98473 2.61414C3.00187 2.52765 2.99297 2.43802 2.95916 2.35659C2.92535 2.27516 2.86814 2.20559 2.79478 2.15667C2.72142 2.10776 2.6352 2.08171 2.54703 2.0818C2.42928 2.08311 2.31672 2.1305 2.2335 2.21381C2.15027 2.29713 2.10301 2.40974 2.10184 2.5275Z" fill="#A82037"/>
<path d="M49.9991 5.29513C49.9935 5.30013 49.985 5.30413 49.984 5.30913C49.901 5.80435 49.5709 6.04996 49.1107 6.1435C48.4955 6.27422 47.8545 6.20263 47.2834 5.93941C47.2153 5.9084 47.1938 5.87789 47.2248 5.80185C47.2904 5.63878 47.3484 5.47271 47.4024 5.30513C47.4274 5.2276 47.4494 5.20509 47.533 5.24861C47.8485 5.40164 48.1938 5.4836 48.5444 5.48871C48.6674 5.49553 48.7901 5.47289 48.9026 5.42268C48.9484 5.4053 48.9883 5.37531 49.0178 5.33619C49.0473 5.29707 49.0651 5.2504 49.0691 5.20159C49.0781 5.08804 49.0106 5.02051 48.9226 4.96999C48.726 4.85594 48.5019 4.82592 48.2848 4.7759C48.0492 4.72188 47.8151 4.66435 47.6135 4.52129C47.2869 4.28868 47.1908 3.95804 47.2313 3.58188C47.2693 3.22822 47.4814 2.99512 47.8006 2.85405C48.1752 2.68798 48.5714 2.68398 48.9696 2.71299C49.2715 2.74046 49.5672 2.81506 49.846 2.93409C49.941 2.97261 49.977 3.00412 49.922 3.10917C49.8525 3.25115 49.791 3.39694 49.7379 3.54586C49.7109 3.61539 49.6914 3.6354 49.6094 3.59588C49.2487 3.42223 48.8447 3.35939 48.4484 3.4153C48.2398 3.44631 48.1252 3.54286 48.1147 3.68292C48.1042 3.82298 48.1988 3.93703 48.3948 3.99606C48.6705 4.07909 48.9516 4.14612 49.2292 4.21766C49.4379 4.26625 49.6286 4.3727 49.7795 4.52479C49.9 4.65134 49.944 4.81292 49.9966 4.97149L49.9991 5.29513Z" fill="white"/>
<path d="M16.9431 4.56907C16.9431 4.91923 16.9396 5.26938 16.9461 5.61553C16.9496 5.6523 16.9413 5.68923 16.9224 5.72097C16.9035 5.75272 16.875 5.77763 16.841 5.79211C16.4864 5.9897 16.1012 6.09224 15.703 6.14827C15.2208 6.2178 14.7386 6.2213 14.2624 6.10875C13.5366 5.93718 13.0449 5.49798 12.8363 4.77967C12.6362 4.10656 12.6327 3.39027 12.8263 2.71526C13.0344 1.98143 13.5191 1.51773 14.2629 1.33915C14.9012 1.18658 15.5365 1.19859 16.1562 1.43369C16.4406 1.54119 16.6906 1.72374 16.8796 1.96193C16.9201 2.01195 16.9176 2.04046 16.8691 2.08348C16.6726 2.25789 16.4785 2.43547 16.2868 2.61621C16.2438 2.65673 16.2228 2.65123 16.1868 2.60871C15.9276 2.29507 15.584 2.16602 15.1863 2.15851C15.0131 2.1509 14.8396 2.16417 14.6696 2.19803C14.2449 2.29307 13.9763 2.55269 13.8692 2.96887C13.7402 3.45805 13.7402 3.97234 13.8692 4.46152C13.9858 4.91172 14.2954 5.15583 14.7476 5.22586C15.1022 5.27698 15.4635 5.25571 15.8096 5.16333C15.8871 5.14383 15.9221 5.11331 15.9191 5.02577C15.9121 4.81735 15.9121 4.60876 15.9191 4.4C15.9221 4.30696 15.8896 4.28595 15.8021 4.28845C15.5715 4.29395 15.3399 4.28845 15.1093 4.29195C15.0337 4.29195 15.0092 4.27094 15.0117 4.19491C15.0162 3.9573 15.0152 3.7202 15.0117 3.48259C15.0117 3.41607 15.0247 3.38905 15.0998 3.38955C15.688 3.39256 16.2763 3.39256 16.8646 3.38955C16.9341 3.38955 16.9481 3.41156 16.9476 3.47559C16.9421 3.84225 16.9431 4.20541 16.9431 4.56907Z" fill="white"/>
<path d="M18.6328 3.71797C18.6328 2.95513 18.6328 2.1928 18.6328 1.42996C18.6328 1.34242 18.6518 1.31591 18.7444 1.31641C19.7188 1.32008 20.6932 1.32008 21.6676 1.31641C21.7487 1.31641 21.7807 1.33192 21.7777 1.42096C21.7702 1.62955 21.7717 1.83864 21.7777 2.04724C21.7777 2.12527 21.7527 2.14178 21.6777 2.14128C21.0354 2.14128 20.3926 2.14128 19.7503 2.13778C19.6568 2.13778 19.6202 2.15378 19.6227 2.25833C19.6313 2.54596 19.6308 2.83408 19.6227 3.12171C19.6202 3.22175 19.6528 3.23926 19.7448 3.23876C20.3581 3.23476 20.9718 3.23876 21.5856 3.23426C21.6832 3.23426 21.7077 3.26177 21.7042 3.35481C21.6972 3.5489 21.6967 3.74348 21.7042 3.93757C21.7077 4.03161 21.6747 4.04912 21.5881 4.04862C20.9708 4.04512 20.3536 4.04862 19.7373 4.04461C19.6463 4.04461 19.6227 4.07012 19.6242 4.15866C19.6293 4.49331 19.6308 4.82796 19.6242 5.1621C19.6242 5.26215 19.6563 5.27766 19.7463 5.27716C20.4106 5.27366 21.0744 5.27716 21.7387 5.27315C21.8347 5.27315 21.8617 5.29767 21.8582 5.39271C21.8512 5.6013 21.8547 5.80989 21.8582 6.01848C21.8582 6.08251 21.8492 6.11503 21.7707 6.11453C20.7532 6.11219 19.7361 6.11219 18.7194 6.11453C18.6343 6.11453 18.6383 6.07351 18.6383 6.01448C18.635 5.25014 18.6331 4.48464 18.6328 3.71797Z" fill="white"/>
<path d="M9.13531 3.71653C9.13531 2.9537 9.13531 2.19136 9.13281 1.42853C9.13281 1.33649 9.15982 1.31498 9.24836 1.31648C9.54049 1.32198 9.83312 1.32248 10.1252 1.31648C10.2208 1.31648 10.2513 1.33649 10.2508 1.43803C10.2468 2.64356 10.2508 3.84859 10.2458 5.05362C10.2458 5.16017 10.2673 5.19068 10.3794 5.18968C11.0687 5.18368 11.758 5.18968 12.4473 5.18418C12.5368 5.18418 12.5633 5.20669 12.5608 5.29723C12.5543 5.54184 12.5568 5.78645 12.5608 6.03105C12.5608 6.10058 12.5418 6.12309 12.4693 6.12309C11.3898 6.12076 10.3105 6.12076 9.23136 6.12309C9.14182 6.12309 9.13431 6.08758 9.13431 6.01505C9.13598 5.24904 9.13631 4.48287 9.13531 3.71653Z" fill="white"/>
<path d="M37.141 6.19011C36.9138 6.19328 36.6872 6.16602 36.4672 6.10907C36.03 5.98202 35.7444 5.69839 35.6213 5.2647C35.4817 4.77557 35.4707 4.25868 35.5893 3.76404C35.7204 3.20679 36.081 2.87515 36.6358 2.75409C37.028 2.66633 37.4347 2.6653 37.8273 2.75109C38.3275 2.86164 38.6467 3.17178 38.7697 3.6675C38.8887 4.12926 38.8969 4.61258 38.7937 5.07812C38.6537 5.69689 38.229 6.06655 37.5832 6.15859C37.4291 6.1781 37.2741 6.1801 37.141 6.19011ZM37.8858 4.41132C37.8758 4.22024 37.8773 4.02566 37.8268 3.83657C37.7648 3.60697 37.6362 3.4414 37.3896 3.39988C37.3037 3.38844 37.2169 3.38576 37.1305 3.39188C36.8084 3.40338 36.6173 3.55195 36.5482 3.86458C36.4623 4.24821 36.4642 4.6463 36.5537 5.02909C36.6098 5.2707 36.7488 5.44678 37.0124 5.4833C37.1271 5.49863 37.2435 5.49542 37.3571 5.47379C37.5942 5.43027 37.7398 5.29121 37.8103 5.06461C37.8768 4.85202 37.8728 4.63242 37.8858 4.41132Z" fill="white"/>
<path d="M39.2046 4.44805C39.2046 3.92682 39.2046 3.40509 39.2046 2.88387C39.2046 2.80183 39.2226 2.77081 39.3117 2.77332C39.5423 2.77932 39.7734 2.77832 40.004 2.77332C40.0835 2.77332 40.112 2.79132 40.108 2.87336C40.1015 2.99791 40.108 2.99742 40.2226 2.93689C40.5885 2.74545 41.003 2.66693 41.4136 2.71129C41.9253 2.76131 42.218 3.07195 42.2435 3.59268C42.269 4.11341 42.25 4.64964 42.2535 5.17787C42.2535 5.462 42.2535 5.74612 42.2535 6.02825C42.2535 6.09428 42.2335 6.11479 42.1669 6.11429C41.9073 6.11079 41.6477 6.10879 41.3881 6.11429C41.3021 6.11429 41.288 6.08727 41.288 6.01024C41.2911 5.36996 41.288 4.73018 41.288 4.0899C41.2909 4.00367 41.2852 3.91738 41.271 3.83228C41.2315 3.6407 41.136 3.54115 40.9464 3.50464C40.7087 3.46122 40.4633 3.49726 40.2481 3.60718C40.2202 3.61796 40.1967 3.63786 40.1816 3.66365C40.1664 3.68945 40.1604 3.71961 40.1646 3.74925C40.1646 4.49958 40.1646 5.2454 40.1691 5.99323C40.1691 6.09628 40.1375 6.11679 40.0425 6.11429C39.7974 6.10828 39.5518 6.10879 39.3067 6.11429C39.2266 6.11429 39.2026 6.09478 39.2031 6.01424C39.2061 5.49101 39.2046 4.96978 39.2046 4.44805Z" fill="white"/>
<path d="M25.537 4.65325C25.2084 4.65325 24.8797 4.65325 24.5516 4.65325C24.4781 4.65325 24.461 4.67576 24.4635 4.74529C24.4781 5.16147 24.7072 5.40057 25.1333 5.44809C25.539 5.49311 25.9217 5.40758 26.2918 5.25201C26.3664 5.2205 26.3954 5.2235 26.4154 5.30703C26.4514 5.4571 26.4944 5.60717 26.5435 5.75223C26.5685 5.82726 26.5435 5.85978 26.4804 5.89229C25.8708 6.18455 25.1808 6.26432 24.5206 6.11889C24.0414 5.99884 23.7257 5.70721 23.5987 5.231C23.4584 4.74085 23.4567 4.22142 23.5937 3.73034C23.7682 3.13008 24.2239 2.76492 24.8482 2.70689C25.0886 2.67863 25.332 2.6891 25.569 2.7379C26.1398 2.86946 26.4949 3.26513 26.5875 3.8599C26.6181 4.09522 26.6319 4.33242 26.629 4.56971C26.629 4.64674 26.598 4.65725 26.533 4.65675C26.2008 4.65175 25.8687 4.65325 25.537 4.65325ZM25.0718 4.04048H25.45C25.7026 4.04048 25.7046 4.04048 25.6501 3.79037C25.6126 3.60929 25.5275 3.46222 25.3414 3.39369C24.8997 3.23162 24.4971 3.48973 24.4625 3.95494C24.457 4.03047 24.4841 4.04448 24.5516 4.04298C24.7262 4.03798 24.8992 4.04048 25.0718 4.04048Z" fill="white"/>
<path d="M30.6116 4.38534C30.6116 4.12623 30.6116 3.86762 30.6116 3.6085C30.6116 3.54297 30.5946 3.52147 30.5271 3.52397C30.39 3.52897 30.253 3.52397 30.1159 3.52697C30.0479 3.52697 30.0299 3.50596 30.0314 3.44093C30.0349 3.25035 30.0364 3.05976 30.0314 2.86918C30.0289 2.78914 30.0609 2.77264 30.1314 2.77464C30.265 2.77914 30.3985 2.77464 30.5316 2.77714C30.5936 2.77714 30.6121 2.75763 30.6106 2.6971C30.6071 2.53553 30.6106 2.37346 30.6106 2.21189C30.6106 2.15586 30.6236 2.12935 30.6852 2.12035C30.9418 2.08183 31.1974 2.04031 31.4525 1.99329C31.5441 1.97679 31.5696 1.99879 31.5656 2.09334C31.5581 2.28692 31.5656 2.48151 31.5616 2.67559C31.5616 2.75413 31.5781 2.78014 31.6616 2.77864C31.9642 2.77313 32.2674 2.78114 32.5705 2.77414C32.6705 2.77163 32.6921 2.80415 32.6881 2.89619C32.6811 3.07577 32.6826 3.25585 32.6881 3.43543C32.6906 3.51096 32.667 3.53297 32.591 3.53247C32.2809 3.52847 31.9707 3.53247 31.6606 3.52897C31.5876 3.52897 31.5606 3.54397 31.5606 3.62251C31.5646 4.0542 31.5606 4.48589 31.5636 4.91708C31.5671 5.31726 31.7306 5.45331 32.1318 5.39629C32.293 5.37871 32.4506 5.33653 32.599 5.27123C32.667 5.23872 32.6826 5.25773 32.6941 5.32476C32.7246 5.49783 32.7581 5.67091 32.8001 5.84148C32.8186 5.91602 32.7911 5.94153 32.7306 5.96904C32.4746 6.08606 32.1999 6.15685 31.9192 6.17813C31.7219 6.20022 31.5225 6.19551 31.3265 6.16413C30.9298 6.08959 30.7292 5.8885 30.6532 5.49383C30.5951 5.1912 30.6141 4.88507 30.6106 4.57993C30.6111 4.5129 30.6116 4.44987 30.6116 4.38534Z" fill="white"/>
<path d="M26.8945 4.45262C26.895 4.20156 26.9276 3.95159 26.9916 3.7088C27.1291 3.24409 27.4233 2.93345 27.892 2.8084C28.4097 2.66834 28.9249 2.66284 29.4276 2.87893C29.5503 2.93176 29.6645 3.00257 29.7663 3.08902C29.8038 3.12054 29.8123 3.14305 29.7748 3.18406C29.6364 3.3358 29.5005 3.4897 29.3671 3.64577C29.3241 3.69579 29.2991 3.67128 29.2621 3.64277C29.1487 3.55571 29.0185 3.493 28.8798 3.45857C28.741 3.42414 28.5967 3.41873 28.4557 3.44268C28.1736 3.48169 27.99 3.64827 27.908 3.91539C27.8123 4.2236 27.8013 4.55185 27.876 4.8658C27.968 5.25548 28.2261 5.45956 28.6263 5.47107C28.9338 5.48338 29.24 5.42539 29.5217 5.3015C29.5902 5.27098 29.6137 5.28349 29.6327 5.35152C29.6768 5.51459 29.7238 5.67666 29.7778 5.83673C29.8028 5.91026 29.7853 5.94578 29.7168 5.97829C29.4442 6.10362 29.1508 6.1774 28.8514 6.19589C28.5095 6.2309 28.1642 6.20189 27.8329 6.11035C27.3217 5.96029 27.0521 5.59863 26.9511 5.09241C26.9157 4.88092 26.8968 4.66702 26.8945 4.45262Z" fill="white"/>
<path d="M45.7095 6.17822C45.4896 6.18743 45.2695 6.16792 45.0547 6.12019C44.5359 5.99864 44.2128 5.6795 44.0943 5.16627C43.9842 4.70589 43.9842 4.22605 44.0943 3.76566C44.2248 3.22692 44.5645 2.88677 45.1117 2.76522C45.5744 2.66517 46.0341 2.65967 46.4838 2.83375C46.6217 2.88761 46.751 2.96143 46.8675 3.05284C46.922 3.09536 46.9405 3.12638 46.8825 3.1869C46.7504 3.32496 46.6254 3.46953 46.5023 3.61559C46.4603 3.66561 46.4373 3.66811 46.3833 3.6271C46.2675 3.53734 46.1339 3.47336 45.9913 3.43946C45.8488 3.40555 45.7007 3.4025 45.5569 3.43051C45.441 3.44454 45.3316 3.49155 45.2417 3.56595C45.1518 3.64035 45.0851 3.73901 45.0497 3.8502C44.919 4.20817 44.9128 4.59977 45.0322 4.96168C45.1322 5.26182 45.3588 5.41839 45.6709 5.4449C46.0031 5.47423 46.3373 5.41899 46.6424 5.28433C46.7089 5.25531 46.7319 5.26332 46.7509 5.33435C46.7964 5.50042 46.8455 5.66599 46.901 5.82907C46.925 5.8991 46.905 5.92911 46.843 5.95962C46.574 6.08377 46.2846 6.15785 45.9891 6.17822C45.9 6.18472 45.803 6.17822 45.7095 6.17822Z" fill="white"/>
<path d="M22.2266 3.70818C22.2266 2.94184 22.2266 2.176 22.2266 1.41016C22.2266 1.32413 22.2416 1.29211 22.3361 1.29511C22.5922 1.30212 22.8483 1.30012 23.1045 1.29511C23.181 1.29511 23.201 1.31762 23.2005 1.39216C23.1985 2.93117 23.1985 4.47051 23.2005 6.01019C23.2005 6.08822 23.184 6.11624 23.1005 6.11424C22.8443 6.10873 22.5877 6.10823 22.3321 6.11424C22.2431 6.11674 22.2261 6.08772 22.2266 6.00569C22.2281 5.24035 22.2266 4.47401 22.2266 3.70818Z" fill="white"/>
<path d="M34.05 3.09088C34.2717 2.85618 34.5742 2.71455 34.8964 2.69471C35.1092 2.67732 35.3232 2.70318 35.5257 2.77074C35.5757 2.78775 35.5997 2.80726 35.5797 2.87079C35.5152 3.07988 35.4567 3.29097 35.4016 3.50307C35.3846 3.56959 35.3591 3.56459 35.3016 3.54608C34.9014 3.41152 34.5283 3.45654 34.1966 3.73467C34.1703 3.75581 34.1496 3.78302 34.1362 3.81395C34.1228 3.84489 34.1171 3.87862 34.1196 3.91224C34.1221 4.61255 34.1196 5.30836 34.1231 6.00617C34.1231 6.0887 34.1046 6.11672 34.017 6.11421C33.7609 6.10821 33.5043 6.11021 33.2482 6.11421C33.1847 6.11421 33.1602 6.10021 33.1602 6.03168C33.1622 4.97354 33.1622 3.91575 33.1602 2.85828C33.1602 2.79175 33.1812 2.77224 33.2472 2.77324C33.4853 2.77675 33.7234 2.77625 33.9615 2.77324C34.027 2.77324 34.0535 2.79225 34.0485 2.85928C34.0435 2.92631 34.05 2.99384 34.05 3.09088Z" fill="white"/>
<path d="M43.696 4.45311C43.696 4.97434 43.696 5.49557 43.696 6.0168C43.696 6.08983 43.68 6.11684 43.6014 6.11684C43.3418 6.11184 43.0822 6.11284 42.8226 6.11684C42.7571 6.11684 42.7266 6.10734 42.7266 6.0308C42.7289 4.97734 42.7289 3.92404 42.7266 2.87091C42.7266 2.80188 42.7446 2.77637 42.8171 2.77737C43.0807 2.78087 43.3438 2.78137 43.607 2.77737C43.682 2.77737 43.6955 2.80388 43.695 2.87091C43.6945 3.39614 43.696 3.92488 43.696 4.45311Z" fill="white"/>
<path d="M43.1955 2.0557C43.0655 2.0557 42.9359 2.0527 42.8063 2.0557C42.7438 2.0557 42.7173 2.04469 42.7188 1.97416C42.7238 1.76957 42.7233 1.56498 42.7188 1.36039C42.7188 1.29136 42.7418 1.27686 42.8059 1.27736C43.076 1.28036 43.3461 1.28036 43.6162 1.27736C43.6752 1.27736 43.6987 1.29086 43.6977 1.35439C43.6942 1.56248 43.6937 1.77057 43.6977 1.97866C43.6977 2.04269 43.6752 2.0567 43.6167 2.0552C43.4751 2.0532 43.3346 2.0557 43.1955 2.0557Z" fill="white"/>
<path d="M3.58984 3.72062C3.58984 3.21339 3.59285 2.70667 3.58984 2.19945C3.58984 2.0994 3.61786 2.07889 3.7114 2.0824C3.88948 2.0899 3.88998 2.08239 3.88998 2.26748C3.88998 3.15937 3.88998 4.05126 3.88697 4.94315C3.88697 5.0432 3.91449 5.06321 4.00753 5.05921C4.18761 5.0517 4.36819 5.0592 4.54877 5.0552C4.6228 5.0552 4.63831 5.07871 4.63781 5.14674C4.63781 5.34933 4.6378 5.34933 4.43271 5.34933C4.18711 5.34933 3.942 5.34483 3.69689 5.34933C3.60735 5.34933 3.59034 5.32132 3.59084 5.23978C3.59184 4.73456 3.58984 4.22784 3.58984 3.72062Z" fill="#FEFEFE"/>
</g>
<defs>
<clipPath id="clip0_1_296">
<rect width="50" height="7.45278" fill="white"/>
</clipPath>
</defs>
</svg>
