<svg width="40" height="13" viewBox="0 0 40 13" fill="none" xmlns="http://www.w3.org/2000/svg">
<g clip-path="url(#clip0_1_513)">
<path d="M0.0117798 4.76995C0.539139 4.65735 1.02209 4.75568 1.48125 4.96187C2.85476 5.57963 3.61368 6.69462 3.97689 8.10699C4.12082 8.63206 4.18997 9.17481 4.18228 9.7192C4.17752 9.89684 4.25127 9.94839 4.42019 9.94759C5.56927 9.94283 6.71995 9.93887 7.86745 9.94759C8.11884 9.94759 8.12835 9.82547 8.1228 9.63673C8.08077 8.18788 8.69854 7.01976 9.70012 6.02451C9.90551 5.82071 10.1307 5.62087 10.4789 5.51302C10.4121 5.6773 10.3168 5.82846 10.1973 5.95949C9.22669 7.19264 8.72312 8.55663 8.9864 10.1474C9.06571 10.6312 8.9071 10.8025 8.40988 10.8033C7.11567 10.8033 5.82172 10.8033 4.52804 10.8033C4.45093 10.8015 4.37466 10.8195 4.30656 10.8557C4.23846 10.8919 4.18081 10.945 4.13915 11.0099C4.0975 11.0749 4.07324 11.1494 4.06871 11.2264C4.06418 11.3034 4.07953 11.3802 4.11329 11.4496C4.17911 11.5899 4.30758 11.5289 4.40829 11.5289C5.75643 11.5289 7.10456 11.5289 8.45746 11.5289C8.62067 11.5217 8.78076 11.5752 8.90681 11.6791C9.03287 11.783 9.11595 11.93 9.14001 12.0915C9.16406 12.2531 9.12739 12.4179 9.03707 12.554C8.94675 12.6902 8.80919 12.788 8.65095 12.8286C8.35436 12.9175 8.12042 12.7922 7.95151 12.5646C7.90795 12.5014 7.84807 12.4512 7.77824 12.4194C7.70842 12.3875 7.63126 12.3752 7.555 12.3838C6.58434 12.3901 5.61395 12.3901 4.64382 12.3838C4.57363 12.3772 4.50296 12.3897 4.4393 12.42C4.37564 12.4503 4.32136 12.4972 4.2822 12.5558C4.04429 12.873 3.74929 12.9325 3.43367 12.7604C3.11804 12.5884 3.04826 12.3298 3.11646 11.9476C3.3956 10.3615 3.49632 8.76996 2.8841 7.22674C2.40829 6.0261 1.42098 5.3671 0.280614 4.88811L0.0117798 4.76995Z" fill="#121212"/>
<path d="M11.3006 2.5152C10.0793 2.62226 9.20698 3.33439 8.42744 4.18055C7.34409 5.33451 6.54328 6.72411 6.08803 8.24003C6.07217 8.29157 6.05075 8.34233 6.00159 8.47793C5.24584 5.21703 2.9881 3.53106 0 2.49062C0.872324 2.42321 1.64314 2.58816 2.39492 2.85224C3.58446 3.26937 4.64076 3.92678 5.58922 4.74756C5.81602 4.94423 5.90642 4.8903 6.07058 4.69046C6.97859 3.58023 8.06661 2.72456 9.49088 2.37801C10.2546 2.18848 10.8374 2.24161 11.3006 2.5152Z" fill="#C4C4C4"/>
<path d="M5.81044 -0.00386696C6.70973 0.00485627 7.47579 0.770122 7.47579 1.65276C7.47579 2.53539 6.69863 3.33317 5.81758 3.31334C4.8501 3.29114 4.16255 2.58456 4.14113 1.63848C4.11734 0.752676 4.93098 -0.0102111 5.81044 -0.00386696ZM6.53685 2.43547C6.03921 2.47212 5.54021 2.3855 5.08404 2.18329C4.99284 2.14364 4.88182 2.07068 4.81044 2.15712C4.73907 2.24356 4.85327 2.33713 4.90085 2.41247C5.28467 3.0231 5.98253 3.0453 6.53685 2.43864V2.43547Z" fill="#C4C4C4"/>
<path d="M16.1949 8.18005C16.5914 7.81843 16.9411 7.58528 17.3844 7.50281C18.1322 7.36482 18.5494 7.66776 18.5739 8.42985C18.5954 9.00717 18.5922 9.58449 18.5993 10.1618C18.6041 10.479 18.6445 10.7732 19.0593 10.7962C19.1687 10.8026 19.1774 10.8755 19.1719 10.9548C19.1663 11.0341 19.1013 11.0555 19.0315 11.0555H17.5977C17.5184 11.0555 17.4391 11.0555 17.4344 10.9421C17.4344 10.8525 17.4582 10.7994 17.5613 10.7883C17.9157 10.7494 17.9649 10.4917 17.9649 10.207C17.9649 9.68441 17.9736 9.1626 17.9649 8.64079C17.949 7.92707 17.5541 7.68044 16.9007 7.96435C16.4344 8.16657 16.1386 8.47347 16.1909 9.03572C16.2322 9.47664 16.1806 9.92232 16.225 10.3664C16.248 10.5932 16.3178 10.7574 16.5628 10.7851C16.6699 10.7978 16.7302 10.8303 16.7167 10.9437C16.7008 11.0762 16.5977 11.0524 16.5129 11.0524C16.0664 11.0524 15.6199 11.0524 15.1743 11.0524C15.0831 11.0524 14.9609 11.0912 14.9609 10.9247C14.9609 10.7931 15.045 10.7962 15.1386 10.7859C15.4558 10.751 15.566 10.5591 15.5644 10.2586C15.5602 8.91465 15.5602 7.57048 15.5644 6.22604C15.5644 5.95404 15.451 5.80495 15.1758 5.79623C15.0617 5.79623 14.9712 5.76926 14.9712 5.63762C14.9712 5.46633 15.1116 5.5377 15.1949 5.52184C15.4566 5.47267 15.7286 5.45761 15.98 5.3791C16.2179 5.30455 16.2393 5.38385 16.2329 5.58687C16.2131 6.30772 16.2068 7.02937 16.1965 7.75023C16.1933 7.86681 16.1949 7.97624 16.1949 8.18005Z" fill="#C4C4C4"/>
<path d="M24.7811 8.14801C24.8858 8.05602 24.9397 8.01716 24.981 7.97117C25.3577 7.57069 25.8002 7.35578 26.3569 7.52946C26.9318 7.70947 27.2562 8.14405 27.3878 8.69916C27.519 9.22292 27.4441 9.77706 27.1784 10.2471C26.7692 10.9704 25.9889 11.2852 25.0714 11.0544C24.7732 10.9791 24.7486 11.0822 24.7597 11.3114C24.774 11.6214 24.793 11.9323 24.7899 12.2416C24.7859 12.5659 24.954 12.7023 25.2546 12.7277C25.3474 12.7356 25.4711 12.7015 25.4719 12.8601C25.4719 13.0505 25.3267 12.991 25.23 12.9926C24.728 12.9965 24.2268 12.9926 23.7232 12.9926C23.6439 12.9926 23.5353 13.0267 23.5179 12.8903C23.5004 12.7539 23.5876 12.7317 23.701 12.7269C24.004 12.7079 24.1229 12.5223 24.1237 12.2384C24.1237 10.9505 24.1237 9.66242 24.1237 8.37402C24.1237 8.12105 24.0087 7.97751 23.7589 7.94658C23.6463 7.9339 23.5646 7.91487 23.5686 7.78005C23.5726 7.64524 23.6796 7.67299 23.7613 7.65713C23.9593 7.6307 24.1545 7.58718 24.345 7.52708C24.6527 7.40575 24.7526 7.52708 24.7558 7.81256C24.7573 7.89821 24.7684 7.98465 24.7811 8.14801ZM24.7518 9.5588C24.774 9.77529 24.7328 10.0616 24.778 10.3518C24.7918 10.445 24.8288 10.5332 24.8856 10.6083C24.9424 10.6834 25.0172 10.743 25.1031 10.7816C25.3559 10.9034 25.6459 10.9227 25.9127 10.8357C26.1794 10.7486 26.4022 10.5619 26.5345 10.3145C26.7994 9.78322 26.8049 9.22494 26.6392 8.66903C26.5274 8.29631 26.322 7.96403 25.9064 7.88235C25.4909 7.80067 25.1975 8.06157 24.9286 8.33913C24.7867 8.48663 24.7581 8.66982 24.7534 8.85935C24.7478 9.06792 24.7518 9.27569 24.7518 9.5588Z" fill="#C4C4C4"/>
<path d="M32.9337 5.73161C33.446 5.73161 33.9591 5.74033 34.4722 5.72685C34.6522 5.72209 34.7387 5.77601 34.7601 5.95207C34.791 6.21614 34.8243 6.47942 34.8647 6.74509C34.8782 6.83311 34.8806 6.89814 34.7775 6.92272C34.6744 6.94731 34.6506 6.88545 34.611 6.80932C34.2264 6.07578 33.5856 5.80218 32.7553 6.00441C32.5785 6.04723 32.5277 6.17332 32.5269 6.32558C32.5222 6.86959 32.5269 7.4136 32.523 7.95762C32.523 8.10829 32.588 8.14715 32.7244 8.14318C33.0257 8.13446 33.3271 8.14318 33.6276 8.1297C33.8655 8.11939 34.0241 8.00599 34.0424 7.74429C34.0495 7.63882 34.0479 7.48735 34.197 7.4937C34.3667 7.50004 34.3065 7.65865 34.308 7.75698C34.3144 8.10115 34.308 8.44532 34.308 8.78791C34.308 8.86721 34.3191 8.95999 34.2216 8.98061C34.1082 9.0044 34.0519 8.914 34.0471 8.82201C34.0273 8.47149 33.772 8.4255 33.5087 8.40567C33.2454 8.38585 32.9734 8.40012 32.7061 8.39378C32.5864 8.39378 32.5198 8.42471 32.5214 8.56031C32.5285 9.13763 32.5301 9.71495 32.5333 10.2923C32.5333 10.6206 32.7172 10.7728 33.0305 10.7935C33.1407 10.8006 33.2787 10.7808 33.2684 10.9457C33.2597 11.0908 33.1296 11.0599 33.0352 11.0599C32.4537 11.0599 31.8737 11.0599 31.2954 11.0599C31.2018 11.0599 31.0876 11.094 31.0908 10.9267C31.0908 10.7879 31.1835 10.8077 31.2716 10.7958C31.7387 10.7324 31.8195 10.6555 31.8227 10.1797C31.8301 8.99172 31.8301 7.80351 31.8227 6.61503C31.8227 6.13922 31.7505 6.07102 31.2676 6.0052C31.1788 5.99251 31.0852 6.0052 31.082 5.87514C31.082 5.71257 31.1938 5.74112 31.2898 5.74112H32.929L32.9337 5.73161Z" fill="#C4C4C4"/>
<path d="M12.6366 11.1526C12.2091 11.0868 11.7817 11.0146 11.3527 10.9575C11.1885 10.9361 11.1623 10.8299 11.1473 10.7054C11.1179 10.4524 11.0878 10.2002 11.068 9.94644C11.06 9.8489 10.9807 9.70853 11.1536 9.67364C11.3122 9.64271 11.3122 9.78149 11.3495 9.88617C11.5081 10.362 11.7975 10.6919 12.3011 10.8219C12.9482 10.9893 13.5216 10.795 13.7167 10.3287C13.9704 9.72201 13.727 9.08284 13.1029 8.76721C12.7761 8.60227 12.4264 8.48331 12.0997 8.31836C11.6389 8.08601 11.3146 7.73232 11.2559 7.19703C11.1639 6.35088 11.7753 5.66888 12.6715 5.60702C13.1116 5.57689 13.5319 5.67602 13.9514 5.7918C13.9938 5.79869 14.0323 5.82073 14.0597 5.85383C14.0871 5.88693 14.1016 5.92885 14.1005 5.97181C14.1346 6.20972 14.1798 6.45239 14.2139 6.69346C14.225 6.78545 14.2527 6.89965 14.1005 6.92582C13.9482 6.95199 13.9419 6.83621 13.907 6.74898C13.6183 6.07808 13.3225 5.86555 12.727 5.86555C12.3305 5.86555 12.0862 6.0876 11.9141 6.40877C11.742 6.72994 11.788 7.0305 11.9934 7.31519C12.2194 7.62526 12.5541 7.7807 12.8967 7.91789C13.2686 8.06618 13.65 8.19465 13.9641 8.45397C14.3987 8.81163 14.5723 9.27237 14.4502 9.81717C14.3035 10.4722 13.8737 10.8782 13.2321 11.0567C13.0393 11.1175 12.8387 11.1498 12.6366 11.1526Z" fill="#C4C4C4"/>
<path d="M23.0697 9.30259C23.0697 10.3946 22.3782 11.1265 21.3433 11.1265C20.3084 11.1265 19.5844 10.3914 19.5859 9.3581C19.5859 8.2558 20.325 7.46833 21.3552 7.47071C22.3853 7.47309 23.0681 8.19315 23.0697 9.30259ZM22.3869 9.6079C22.3869 9.06468 22.3306 8.59125 22.0562 8.18046C21.6502 7.57142 20.7636 7.54605 20.4916 8.16698C20.1514 8.93859 20.2077 9.72448 20.6597 10.4509C20.7536 10.6118 20.897 10.738 21.0684 10.8109C21.2399 10.8838 21.4303 10.8994 21.6113 10.8553C21.9967 10.776 22.2211 10.5112 22.3211 10.1416C22.3738 9.96887 22.3961 9.78828 22.3869 9.6079Z" fill="#C4C4C4"/>
<path d="M30.4877 7.98848C30.4907 8.03231 30.4907 8.07629 30.4877 8.12012C30.4616 8.26286 30.5361 8.48174 30.3355 8.50949C30.1348 8.53725 30.1769 8.3041 30.1206 8.18515C30.0606 8.04021 29.9558 7.91829 29.8215 7.83724C29.6872 7.75618 29.5305 7.72025 29.3743 7.73471C29.1008 7.75453 28.9073 7.89332 28.8486 8.16294C28.8166 8.27689 28.8249 8.39838 28.8722 8.50689C28.9194 8.6154 29.0027 8.70427 29.1079 8.7585C29.3799 8.906 29.6773 9.00672 29.9532 9.14787C30.3141 9.33185 30.6019 9.58404 30.6281 10.0273C30.6638 10.6356 30.2498 11.0337 29.4957 11.1257C29.0912 11.1748 28.7027 11.0257 28.3006 11.0416C28.1991 11.0456 28.2157 10.9623 28.211 10.9005C28.1904 10.6356 28.1697 10.3707 28.1531 10.1074C28.1483 10.0281 28.1285 9.94169 28.2324 9.9179C28.3363 9.89411 28.3973 9.93455 28.4227 10.0456C28.4513 10.1524 28.4881 10.2569 28.5329 10.358C28.7209 10.8211 29.1571 11.002 29.6233 10.8124C29.8311 10.7284 29.9897 10.6023 30.0135 10.3596C30.0295 10.2489 30.0137 10.1359 29.9679 10.0338C29.9222 9.93175 29.8483 9.84479 29.755 9.78308C29.5171 9.61338 29.2395 9.52456 28.9794 9.39847C28.7193 9.27238 28.4695 9.12408 28.345 8.8386C28.0571 8.17325 28.5242 7.52059 29.3236 7.47222C29.6836 7.45081 30.0325 7.53249 30.3791 7.60783C30.6543 7.66572 30.4203 7.89014 30.4877 7.98848Z" fill="#C4C4C4"/>
<path d="M38.5809 6.30469C38.5809 6.63934 38.592 6.97162 38.5809 7.3031C38.5722 7.4958 38.638 7.55607 38.8259 7.54101C39.0369 7.52673 39.2502 7.54101 39.4603 7.53704C39.5515 7.53704 39.6134 7.56004 39.6142 7.66313C39.615 7.76623 39.5603 7.79874 39.4659 7.79319C39.4104 7.79319 39.3541 7.79319 39.2986 7.79319C38.5848 7.79319 38.5848 7.79319 38.5848 8.52435C38.5848 9.06837 38.5793 9.61238 38.5848 10.1564C38.592 10.6703 38.7807 10.7908 39.2668 10.5926C39.3379 10.561 39.407 10.5252 39.4738 10.4855C39.4954 10.4676 39.5227 10.4578 39.5507 10.4578C39.5788 10.4578 39.606 10.4676 39.6277 10.4855C39.6784 10.5355 39.6372 10.5862 39.6086 10.6322C39.4143 10.9494 38.7212 11.2071 38.3596 11.0929C37.998 10.9788 37.9322 10.6663 37.9282 10.3483C37.9171 9.59335 37.9155 8.8376 37.9282 8.08264C37.9282 7.85822 37.8854 7.75275 37.6388 7.78367C37.5595 7.79398 37.4136 7.85029 37.3961 7.69803C37.3787 7.54577 37.5095 7.51801 37.6237 7.53942C37.8997 7.58542 37.9473 7.44267 37.9163 7.21825C37.9124 7.16281 37.9124 7.10715 37.9163 7.05171C37.9139 6.45933 37.9362 6.43474 38.5809 6.30469Z" fill="#C4C4C4"/>
<path d="M36.1496 11.0629H35.4129C35.3257 11.0629 35.221 11.0804 35.2083 10.9543C35.1972 10.8457 35.2591 10.7997 35.3669 10.7957C35.7333 10.7814 35.8261 10.5324 35.83 10.2287C35.8364 9.62837 35.83 9.02884 35.83 8.42932C35.83 8.16207 35.7317 7.97333 35.4415 7.94637C35.3233 7.93527 35.2448 7.8972 35.2488 7.77111C35.2527 7.64502 35.3725 7.67515 35.451 7.65612C35.7317 7.58792 36.0188 7.53876 36.2908 7.44677C36.5184 7.36746 36.516 7.49038 36.4993 7.6363C36.4097 8.41108 36.4629 9.18824 36.451 9.96461C36.451 10.097 36.4652 10.2303 36.474 10.3611C36.4914 10.6181 36.6183 10.7743 36.8863 10.7917C36.9934 10.7989 37.1036 10.8116 37.0862 10.9503C37.0687 11.0891 36.9411 11.0598 36.8483 11.0606C36.6175 11.0653 36.3836 11.0637 36.1496 11.0629Z" fill="#C4C4C4"/>
<path d="M36.1668 6.52639C35.9471 6.52639 35.691 6.28848 35.7259 6.11402C35.7415 6.01362 35.7913 5.92168 35.8668 5.85377C35.9424 5.78585 36.0391 5.74612 36.1406 5.7413C36.3436 5.72306 36.5506 5.94272 36.5371 6.15208C36.5141 6.38999 36.3444 6.48277 36.1668 6.52639Z" fill="#C4C4C4"/>
</g>
<defs>
<clipPath id="clip0_1_513">
<rect width="39.6511" height="13" fill="white"/>
</clipPath>
</defs>
</svg>
