<svg width="52" height="22" viewBox="0 0 52 22" fill="none" xmlns="http://www.w3.org/2000/svg">
<g clip-path="url(#clip0_1_177)">
<path d="M26.0703 10.6001H26.6241V9.52838C26.6241 8.84739 26.7144 8.3592 26.9236 8.08537C27.3523 7.52437 28.6866 7.43822 28.9748 7.5418V8.57765C28.9748 8.57765 28.3533 8.58791 28.1061 9.0084C28.0179 9.18353 27.9772 9.37875 27.9882 9.57453L27.982 10.0248V10.6001H28.9163V11.477H27.982V17.5885H26.6241V11.477H26.0703V10.6001Z" fill="white"/>
<path d="M34.0132 14.126C34.0132 16.4308 33.2556 17.5829 31.7404 17.5822C30.2253 17.5815 29.4681 16.412 29.4688 14.0737C29.4688 11.7257 30.2239 10.5518 31.7343 10.5518C32.0846 10.5415 32.4327 10.6116 32.7517 10.7569C33.0448 10.9033 33.2908 11.1294 33.4614 11.4092C33.6661 11.7519 33.8068 12.1289 33.8767 12.5219C33.9753 13.0508 34.021 13.5881 34.0132 14.126ZM32.6286 14.0931C32.6286 13.1975 32.5657 12.5742 32.4399 12.2235C32.3137 11.8686 32.0902 11.6902 31.7692 11.6902C31.4481 11.6902 31.2256 11.8666 31.0902 12.2173C30.9548 12.5681 30.9015 13.1804 30.9015 14.0542C30.9015 14.928 30.9651 15.5372 31.0902 15.8838C31.2153 16.2305 31.4522 16.411 31.7692 16.411C32.0861 16.411 32.3076 16.2377 32.4327 15.891C32.564 15.5662 32.6293 14.967 32.6286 14.0931Z" fill="white"/>
<path d="M34.8477 11.8432C34.8479 11.5235 34.9713 11.2161 35.1923 10.9849C35.4133 10.7538 35.7148 10.6168 36.0343 10.6023C36.6496 10.5746 37.3245 10.5469 37.6178 10.5469C38.1949 10.5469 38.6075 10.7674 38.8557 11.2084C38.9924 11.4579 39.0608 11.9413 39.0608 12.6586V17.5814H37.748L37.7419 12.957C37.7419 12.4893 37.6844 12.1574 37.5696 11.9612C37.4547 11.7649 37.2578 11.6668 36.9788 11.6668C36.8474 11.6628 36.7169 11.6891 36.5973 11.7437C36.4905 11.7988 36.4029 11.885 36.346 11.9909C36.2741 12.1302 36.2266 12.2807 36.2055 12.436C36.1727 12.6594 36.1576 12.8851 36.1604 13.1109V17.5865H34.8477V11.8432Z" fill="white"/>
<path d="M44.7005 16.5946C44.3733 17.4069 43.5159 17.7166 42.558 17.7166C42.136 17.7112 41.7187 17.6273 41.3273 17.4694C41.0401 17.3341 40.7694 17.0305 40.5817 16.7454C40.3754 16.413 40.2345 16.0444 40.1663 15.6593C40.0699 15.1426 40.0249 14.6177 40.032 14.0922C40.032 12.8902 40.2162 11.9993 40.5848 11.4195C40.9533 10.8397 41.5232 10.5501 42.2944 10.5508C43.7918 10.5508 44.5408 11.7535 44.5415 14.1588V14.3168L41.3837 15.0747C41.4216 15.7834 41.9406 16.6377 42.5765 16.6377C42.9867 16.6377 43.4697 16.5095 43.5887 16.0623C43.6123 15.9721 43.9241 16.0233 44.2143 16.1372C44.5046 16.251 44.7661 16.4305 44.7005 16.5946ZM43.1282 13.4081C43.0708 12.6922 42.9816 12.2225 42.8605 11.9989C42.8091 11.8826 42.7236 11.7845 42.6155 11.7176C42.5073 11.6506 42.3815 11.6178 42.2544 11.6236C42.1269 11.6163 42.0003 11.6484 41.8917 11.7156C41.7831 11.7827 41.6978 11.8816 41.6473 11.9989C41.5263 12.2225 41.3796 12.9302 41.3796 13.9137L43.1282 13.4081Z" fill="white"/>
<path d="M48.4304 10.8503V12.0481C48.1469 11.8281 47.7995 11.7064 47.4407 11.7015C47.3298 11.7002 47.2198 11.7204 47.1166 11.761C47.0209 11.799 46.9332 11.8546 46.8581 11.9251C46.7834 11.9943 46.7237 12.078 46.6828 12.1712C46.6395 12.2679 46.6178 12.3729 46.6192 12.4789C46.6192 12.8078 46.9197 13.1989 47.5207 13.6522C47.7334 13.8127 47.9358 13.9863 48.1268 14.1722C48.2686 14.3072 48.393 14.4595 48.497 14.6255C48.683 14.9467 48.774 15.314 48.7596 15.6849C48.7596 16.3003 48.5781 16.796 48.215 17.172C47.8519 17.5481 47.3702 17.7296 46.7699 17.7166C46.3718 17.7086 45.9828 17.5961 45.6418 17.3905V16.1598C46.0137 16.4332 46.3662 16.57 46.6992 16.57C47.2872 16.57 47.5812 16.2835 47.5812 15.7105C47.5858 15.5136 47.5292 15.3201 47.4191 15.1567C47.3514 15.0603 47.2726 14.9722 47.1843 14.8942C47.0756 14.7916 46.9433 14.6819 46.7863 14.5567C46.2435 14.1397 45.8756 13.7886 45.6828 13.5035C45.4872 13.1854 45.3889 12.8172 45.3997 12.444C45.3904 12.1931 45.4314 11.9429 45.5204 11.7081C45.6093 11.4733 45.7444 11.2587 45.9177 11.0769C46.2684 10.7262 46.7241 10.5508 47.2848 10.5508C47.6856 10.5537 48.0794 10.6567 48.4304 10.8503Z" fill="white"/>
<path d="M49.8867 10.1951C49.9849 10.1776 50.0844 10.1694 50.1841 10.1705C50.3079 10.1578 50.4318 10.1927 50.5308 10.268C50.5618 10.297 50.5863 10.3323 50.6026 10.3716C50.6188 10.4109 50.6265 10.4532 50.6251 10.4956C50.6264 10.5645 50.605 10.632 50.5642 10.6875C50.5235 10.7431 50.4656 10.7838 50.3995 10.8033C50.4472 10.8247 50.4885 10.8582 50.5193 10.9005C50.5501 10.9427 50.5692 10.9923 50.5749 11.0443C50.5958 11.1566 50.6267 11.2668 50.6672 11.3735H50.5072C50.4715 11.2809 50.4447 11.1851 50.4272 11.0874C50.3913 10.9223 50.3246 10.8597 50.1882 10.8546H50.0416V11.3735H49.8867V10.1951ZM50.0416 10.7408H50.2006C50.3646 10.7408 50.4703 10.6495 50.4703 10.5131C50.4703 10.3582 50.3585 10.2905 50.1944 10.2895C50.1431 10.2881 50.0917 10.2929 50.0416 10.3038V10.7408Z" fill="white"/>
<path d="M50.2767 9.76758C50.0776 9.76738 49.883 9.82621 49.7174 9.93664C49.5518 10.0471 49.4227 10.2041 49.3464 10.388C49.2701 10.5718 49.25 10.7741 49.2887 10.9693C49.3274 11.1646 49.4232 11.3439 49.5639 11.4847C49.7045 11.6256 49.8838 11.7215 50.079 11.7604C50.2742 11.7993 50.4765 11.7794 50.6604 11.7033C50.8443 11.6272 51.0015 11.4982 51.1121 11.3328C51.2227 11.1673 51.2817 10.9727 51.2817 10.7737C51.2817 10.507 51.1759 10.2513 50.9874 10.0626C50.799 9.87397 50.5433 9.76785 50.2767 9.76758ZM50.2767 11.6526C50.1028 11.6526 49.9329 11.6011 49.7884 11.5045C49.6438 11.4079 49.5312 11.2706 49.4646 11.11C49.3981 10.9494 49.3807 10.7727 49.4146 10.6022C49.4485 10.4317 49.5322 10.2751 49.6552 10.1522C49.7781 10.0293 49.9347 9.94556 50.1052 9.91164C50.2757 9.87773 50.4524 9.89513 50.613 9.96166C50.7736 10.0282 50.9109 10.1408 51.0075 10.2854C51.104 10.4299 51.1556 10.5999 51.1556 10.7737C51.1553 11.0067 51.0626 11.2301 50.8979 11.3949C50.7331 11.5597 50.5097 11.6523 50.2767 11.6526Z" fill="white"/>
<path d="M6.63884 11.7051C6.3086 11.7051 6.07305 11.8828 5.9322 12.2384C5.79135 12.5939 5.72572 13.2144 5.73529 14.0998C5.73529 14.9839 5.80093 15.602 5.9322 15.9541C6.06348 16.3062 6.29902 16.484 6.63884 16.4874C6.96908 16.4874 7.20086 16.312 7.33214 15.9603C7.46888 15.6314 7.53726 15.0246 7.53726 14.1398C7.53726 13.2325 7.47162 12.6011 7.34034 12.2456C7.20907 11.89 6.97523 11.7099 6.63884 11.7051Z" fill="#F31B00"/>
<path d="M16.4377 15.3316C16.4172 16.5049 17.7341 16.4844 17.7341 16.4844V13.9102C17.7341 13.9102 16.4582 14.1614 16.4377 15.3316Z" fill="#F31B00"/>
<path d="M25.7835 15.1752L25.4061 8.44218C25.3777 7.92956 25.2456 7.42804 25.0178 6.96796C24.7899 6.50788 24.4711 6.09882 24.0806 5.76554C23.6901 5.43226 23.236 5.18169 22.7458 5.029C22.2556 4.87631 21.7396 4.82467 21.2289 4.87722L20.7314 4.9285V0.603569C20.7348 0.522215 20.7217 0.441022 20.6929 0.36487C20.664 0.288718 20.6201 0.219178 20.5637 0.160429C20.5074 0.10168 20.4397 0.0549359 20.3648 0.0230033C20.2899 -0.00892929 20.2093 -0.0253906 20.1279 -0.0253906C20.0465 -0.0253906 19.9659 -0.00892929 19.891 0.0230033C19.8161 0.0549359 19.7484 0.10168 19.692 0.160429C19.6357 0.219178 19.5917 0.288718 19.5629 0.36487C19.5341 0.441022 19.521 0.522215 19.5243 0.603569V5.05362L11.375 5.8946V13.4122L12.6744 10.6431H14.5799L13.1185 13.4122L14.5799 17.6715H12.6036L11.3729 13.5907V17.6715H9.68991V6.07101L2.8492 6.77867C2.42912 6.82252 2.02198 6.94964 1.65157 7.15261C1.28116 7.35557 0.954909 7.6303 0.691862 7.96075C0.428814 8.29121 0.234248 8.67077 0.119525 9.07726C0.00480313 9.48375 -0.027775 9.90902 0.0236938 10.3282L1.13236 19.295C1.18346 19.7142 1.32031 20.1184 1.5344 20.4825C1.74849 20.8465 2.03524 21.1626 2.37678 21.411C2.71832 21.6594 3.10735 21.8349 3.51963 21.9264C3.93192 22.0179 4.35864 22.0236 4.77322 21.9431L21.315 18.7637L21.5632 17.971L20.1448 10.5508H21.8278L22.6237 14.8173L23.6749 10.5559H25.1866L22.8944 18.4612L23.2831 18.3863C24.0184 18.2453 24.6774 17.8419 25.1374 17.2511C25.5974 16.6604 25.827 15.9226 25.7835 15.1752ZM6.61005 17.6735C5.03064 17.6735 4.24059 16.4886 4.23991 14.1188C4.23922 11.749 5.02551 10.5597 6.59877 10.5508C6.96377 10.5417 7.32616 10.6146 7.65924 10.7641C7.96649 10.9091 8.22642 11.1381 8.40894 11.4246C8.62177 11.7707 8.76884 12.1532 8.84277 12.5528C8.94447 13.0867 8.99189 13.6297 8.9843 14.1732C8.98088 16.5068 8.18947 17.6735 6.61005 17.6735ZM19.3274 17.2233L18.9326 17.371C18.6681 17.4714 18.3927 17.5402 18.1121 17.5761C17.6516 17.6372 17.1879 17.6715 16.7234 17.6787C15.586 17.6787 15.0056 16.6531 15.0056 15.607C15.0056 13.8635 15.5748 12.7579 17.7449 12.7722V12.6235C17.7449 12.0277 17.5798 11.7097 16.7193 11.7097C16.3901 11.7097 16.1922 11.7672 15.6486 12.0615L15.4158 11.1969C15.9397 10.7784 16.5913 10.5521 17.2619 10.5559C18.9787 10.5559 19.3972 11.641 19.3972 13.0871C19.3982 13.082 19.3879 15.1126 19.3295 17.2233H19.3274Z" fill="#F31B00"/>
</g>
<defs>
<clipPath id="clip0_1_177">
<rect width="51.2797" height="22" fill="white"/>
</clipPath>
</defs>
</svg>
